<?xml version="1.0" encoding="utf-8"?>
<!-- Generator: Adobe Illustrator 25.0.0, SVG Export Plug-In . SVG Version: 6.00 Build 0)  -->
<svg version="1.1" id="Camada_1" xmlns="http://www.w3.org/2000/svg" xmlns:xlink="http://www.w3.org/1999/xlink" x="0px" y="0px"
	 viewBox="0 0 75 70" style="enable-background:new 0 0 75 70;" xml:space="preserve">
<style type="text/css">
	.st0{fill:#875A39;}
	.st1{fill:#5D3D21;}
	.st2{fill:#C1733E;}
	.st3{fill:#F5A56D;}
	.st4{fill:#F9C1A1;}
	.st5{fill:#BE8840;}
	.st6{opacity:0.52;fill:#A65A34;}
	.st7{fill:#986F31;}
	.st8{fill:#674339;}
	.st9{fill:#3C2A21;}
	.st10{fill:#3C3631;}
	.st11{clip-path:url(#SVGID_2_);}
	.st12{fill:#634A3F;}
	.st13{fill:#322017;}
	.st14{fill:#FFFFFF;}
	.st15{clip-path:url(#SVGID_4_);}
	.st16{fill:#393839;}
	.st17{fill:#231F20;}
	.st18{fill:#EBEBEC;}
	.st19{fill:#C1C3C5;}
	.st20{fill:#9FA1A4;}
	.st21{fill:#CACBCC;}
	.st22{fill:#FEFAFC;}
	.st23{fill:#004160;}
	.st24{opacity:0.4;fill:#004160;}
	.st25{fill:#F9AE00;}
	.st26{opacity:0.7;fill:#F9AE00;}
	.st27{opacity:0.8;fill:#CFE9E8;}
	.st28{fill:#1BB1A3;}
	.st29{fill:#009D8D;}
	.st30{fill:#E94974;}
	.st31{opacity:0.5;fill:#E94974;}
	.st32{opacity:0.9;fill:#FBDEE6;}
	.st33{fill:#EB6121;}
	.st34{opacity:0.5;fill:#EB6121;}
	.st35{fill:#FEF3D9;}
	.st36{fill:#41170D;}
	.st37{opacity:0.4;fill:#0FA68F;}
	.st38{fill:#CDE8E6;}
	.st39{opacity:0.3;fill:#41170D;}
	.st40{fill:#F0F8F9;}
	.st41{opacity:0.6;fill:#FBDEE6;}
	.st42{opacity:0.6;fill:#0FA68F;}
</style>
<g>
	<g>
		<g>
			<path class="st0" d="M132.9,66.8c-0.6-1.9-1.5-3.6-2-5.6c-0.1-0.3-0.9-4.2-1.4-3.6c-0.2,0.2-0.3,0.5-0.4,0.8
				c-0.2,0.6-0.2,1.1-0.2,1.7c0,0.6,0.1,1.2,0.2,1.8c0.2,0.9,0.4,1.7,0.6,2.5c-0.1-0.1-0.2-0.1-0.2-0.2c-0.2-0.2-0.3-0.4-0.5-0.6
				c-1-1.4-2.8-2.1-4.2-3c-1.4-0.9-2.7-2-3.8-3.4c-0.5-0.7-1-1.5-1.3-2.4c-0.3-0.7-0.2-1.9-0.8-2.4c-0.1,0-0.1,0-0.2,0
				c-0.5,0.4-0.6,1.2-0.7,1.8c0,0.3,0,0.6,0,0.9c0,0.4,0.1,0.8,0.1,1.1c-0.1-0.1-0.1-0.2-0.2-0.3c-0.2-0.2-0.3-0.4-0.5-0.5
				c-1.6-1.4-3.1-2.4-4-4.5c-0.2-0.5-0.7-2.3-1.4-1.9c-0.3,0.1-0.4,0.5-0.4,0.8c-0.4,2.5,1,4.8,2.5,6.5c1.6,1.8,3.6,3.3,5.6,4.7
				c2.3,1.6,4.6,2.9,6.9,4.4c1.1,0.7,2.3,1.5,3.1,2.6c0.7,1,0.9,3.3,2.1,3.6c0.4,0.1,0.8,0.1,1.2,0.1c0.2,0,0.4,0,0.6,0
				c0.3-0.1-0.3-3.2-0.4-3.5C133.2,67.8,133,67.3,132.9,66.8z"/>
			<path class="st1" d="M112.2,50.3c0.2,0.4,0.3,0.8,0.4,1.2c0.1,0.5,0.4,0.9,0.7,1.4c0.3,0.5,0.6,0.9,1,1.3
				c0.7,0.8,1.6,1.5,2.4,2.1c0.8,0.6,1.5,1.3,2.2,1.9c-0.1-0.7-0.4-1.3-0.8-1.8c0,0,0,0,0,0c0,0.1,0,0.1,0,0.2
				c-0.1-0.1-0.1-0.2-0.2-0.3c-0.2-0.2-0.3-0.4-0.5-0.5c-1.6-1.4-3.1-2.4-4-4.5c-0.2-0.5-0.7-2.3-1.4-1.9c-0.2,0.1-0.3,0.4-0.4,0.6
				C111.9,49.9,112.1,50.1,112.2,50.3z"/>
			<path class="st1" d="M119.2,54.7c0,0.4,0.1,0.7,0.2,1c0.1,0.3,0.2,0.6,0.4,0.9c0.3,0.6,0.6,1.1,1,1.6c0.9,1,1.9,1.8,3,2.5
				c0.7,0.4,1.3,0.9,2,1.3c0.6,0.5,1.3,0.9,1.9,1.4c0.6,0.5,1.2,0.9,1.7,1.5c0.2,0.2,0.3,0.5,0.5,0.7c0.1,0.2,0.3,0.4,0.5,0.5
				c0.1-0.7-0.2-1.4-0.5-1.9c-0.1-0.1-0.1-0.2-0.2-0.3c0,0.2,0.1,0.4,0.1,0.5c-0.1-0.1-0.2-0.1-0.2-0.2c-0.2-0.2-0.3-0.4-0.5-0.6
				c-1-1.4-2.8-2.1-4.2-3c-1.4-0.9-2.7-2-3.8-3.4c-0.5-0.7-1-1.5-1.3-2.4c-0.3-0.7-0.2-1.9-0.8-2.4c-0.1,0-0.1,0-0.2,0
				C119.1,53.2,119.1,54,119.2,54.7z"/>
			<path class="st1" d="M133.3,68.4c-0.1-0.5-0.2-1-0.4-1.6c-0.6-1.9-1.5-3.6-2-5.6c0-0.2-0.7-3-1.1-3.6c-0.1,1,0,2.1,0.3,3
				c0.3,1.1,0.7,2.2,1.1,3.3c0.4,1.1,0.8,2.2,1,3.4c0.3,1.5,0.5,3,0.5,4.5c0.1,0,0.2,0,0.4,0c0.2,0,0.4,0,0.6,0
				C134,71.8,133.3,68.7,133.3,68.4z"/>
		</g>
		<g>
			<path class="st0" d="M148.3,66.8c0.6-1.9,1.5-3.6,2-5.6c0.1-0.3,0.9-4.2,1.4-3.6c0.2,0.2,0.3,0.5,0.4,0.8
				c0.2,0.6,0.2,1.1,0.2,1.7c0,0.6-0.1,1.2-0.2,1.8c-0.2,0.9-0.4,1.7-0.6,2.5c0.1-0.1,0.2-0.1,0.2-0.2c0.2-0.2,0.3-0.4,0.5-0.6
				c1-1.4,2.8-2.1,4.2-3c1.4-0.9,2.7-2,3.8-3.4c0.5-0.7,1-1.5,1.3-2.4c0.3-0.7,0.2-1.9,0.8-2.4c0.1,0,0.1,0,0.2,0
				c0.5,0.4,0.6,1.2,0.7,1.8c0,0.3,0,0.6,0,0.9c0,0.4-0.1,0.8-0.1,1.1c0.1-0.1,0.1-0.2,0.2-0.3c0.2-0.2,0.3-0.4,0.5-0.5
				c1.6-1.4,3.1-2.4,4-4.5c0.2-0.5,0.7-2.3,1.4-1.9c0.3,0.1,0.4,0.5,0.4,0.8c0.4,2.5-1,4.8-2.5,6.5c-1.6,1.8-3.6,3.3-5.6,4.7
				c-2.3,1.6-4.6,2.9-6.9,4.4c-1.1,0.7-2.3,1.5-3.1,2.6c-0.7,1-0.9,3.3-2.1,3.6c-0.4,0.1-0.8,0.1-1.2,0.1c-0.2,0-0.4,0-0.6,0
				c-0.3-0.1,0.3-3.2,0.4-3.5C148,67.8,148.1,67.3,148.3,66.8z"/>
			<path class="st1" d="M169,50.3c-0.2,0.4-0.3,0.8-0.4,1.2c-0.1,0.5-0.4,0.9-0.7,1.4c-0.3,0.5-0.6,0.9-1,1.3
				c-0.7,0.8-1.6,1.5-2.4,2.1c-0.8,0.6-1.5,1.3-2.2,1.9c0.1-0.7,0.4-1.3,0.8-1.8c0,0,0,0,0,0c0,0.1,0,0.1,0,0.2
				c0.1-0.1,0.1-0.2,0.2-0.3c0.2-0.2,0.3-0.4,0.5-0.5c1.6-1.4,3.1-2.4,4-4.5c0.2-0.5,0.7-2.3,1.4-1.9c0.2,0.1,0.3,0.4,0.4,0.6
				C169.3,49.9,169.1,50.1,169,50.3z"/>
			<path class="st1" d="M162,54.7c0,0.4-0.1,0.7-0.2,1c-0.1,0.3-0.2,0.6-0.4,0.9c-0.3,0.6-0.6,1.1-1,1.6c-0.9,1-1.9,1.8-3,2.5
				c-0.7,0.4-1.3,0.9-2,1.3c-0.6,0.5-1.3,0.9-1.9,1.4c-0.6,0.5-1.2,0.9-1.7,1.5c-0.2,0.2-0.3,0.5-0.5,0.7c-0.1,0.2-0.3,0.4-0.5,0.5
				c-0.1-0.7,0.2-1.4,0.5-1.9c0.1-0.1,0.1-0.2,0.2-0.3c0,0.2-0.1,0.4-0.1,0.5c0.1-0.1,0.2-0.1,0.2-0.2c0.2-0.2,0.3-0.4,0.5-0.6
				c1-1.4,2.8-2.1,4.2-3c1.4-0.9,2.7-2,3.8-3.4c0.5-0.7,1-1.5,1.3-2.4c0.3-0.7,0.2-1.9,0.8-2.4c0.1,0,0.1,0,0.2,0
				C162.1,53.2,162.1,54,162,54.7z"/>
			<path class="st1" d="M147.9,68.4c0.1-0.5,0.2-1,0.4-1.6c0.6-1.9,1.5-3.6,2-5.6c0-0.2,0.7-3,1.1-3.6c0.1,1,0,2.1-0.3,3
				c-0.3,1.1-0.7,2.2-1.1,3.3c-0.4,1.1-0.8,2.2-1,3.4c-0.3,1.5-0.5,3-0.5,4.5c-0.1,0-0.2,0-0.4,0c-0.2,0-0.4,0-0.6,0
				C147.1,71.8,147.8,68.7,147.9,68.4z"/>
		</g>
		<path class="st2" d="M151.1,71.3c0.9-0.6,1.6-1.5,2.4-2.3c0,0,0,0-0.1,0c-0.3,0-0.7,0-1,0.1c-0.1,0-0.3,0.1-0.4,0.2
			c0.3-0.4,0.7-0.9,0.9-1.4c0-0.1,0-0.1,0-0.2c-0.4-0.2-0.8-0.2-1.2-0.2c-0.3,0-0.6,0.2-1,0.2c0.2-0.4,0.5-0.7,0.7-1.1
			c0-0.1-1-0.1-1.4,0.1c-0.4,0.2-0.7,0.5-1.1,0.6c0-0.1,0-0.2,0-0.3c0-0.2,0.1-0.4,0.1-0.6c0.1-0.3,0.2-0.7,0.2-1
			c0-0.3-1.1,0.3-1.4,0.5c-0.1,0.2-0.3,0.3-0.4,0.5c0,0-0.1,0.1-0.1,0.1c-0.1-0.6-0.2-1.1-0.3-1.7c0-0.1-0.2-0.1-0.2,0
			c0,0-0.4,1.2-0.5,1.3c-0.1,0.4-0.2,0.8-0.2,1.2c0,0.4-0.1,0.9-0.1,1.3c0.1,0.2,0.2,0.3,0.4,0.4c0.3,0.3,0.7,0.4,1,0.6
			c0.4,0.2,0.8,0.5,1.2,0.7c0.4,0.3,0.9,0.5,1.4,0.7C150.4,71.3,150.7,71.3,151.1,71.3z"/>
		<path class="st2" d="M129.8,71.3c-0.9-0.6-1.6-1.5-2.4-2.3c0,0,0,0,0.1,0c0.3,0,0.7,0,1,0.1c0.1,0,0.3,0.1,0.4,0.2
			c-0.3-0.4-0.7-0.9-0.9-1.4c0-0.1,0-0.1,0-0.2c0.4-0.2,0.8-0.2,1.2-0.2c0.3,0,0.6,0.2,1,0.2c-0.2-0.4-0.5-0.7-0.7-1.1
			c0-0.1,1-0.1,1.4,0.1c0.4,0.2,0.7,0.5,1.1,0.6c0-0.1,0-0.2,0-0.3c0-0.2-0.1-0.4-0.1-0.6c-0.1-0.3-0.2-0.7-0.2-1
			c0-0.3,1.1,0.3,1.4,0.5c0.1,0.2,0.3,0.3,0.4,0.5c0,0,0.1,0.1,0.1,0.1c0.1-0.6,0.2-1.1,0.3-1.7c0-0.1,0.2-0.1,0.2,0
			c0,0,0.4,1.2,0.5,1.3c0.1,0.4,0.2,0.8,0.2,1.2c0,0.4,0.1,0.9,0.1,1.3c-0.1,0.2-0.2,0.3-0.4,0.4c-0.3,0.3-0.7,0.4-1,0.6
			c-0.4,0.2-0.8,0.5-1.2,0.7c-0.4,0.3-0.9,0.5-1.4,0.7C130.5,71.3,130.1,71.3,129.8,71.3z"/>
	</g>
	<g>
		<path class="st3" d="M127.6,71.8c0,0-0.1-0.9-7.4-3.1c-6.7-2-9.7-4.6-10.3-1.1c-0.6,3.5,1.3,15.7,10.5,14.4
			C129.5,80.7,127.6,71.8,127.6,71.8z"/>
		<path class="st4" d="M112,72.2c0.3,1.2,0.8,2.4,1.5,3.5c0.5,0.9,1.1,1.7,1.9,2.4c1.4,1.2,3.1,1.9,4.9,2.3c1.7,0.3,3.4,0.2,5-0.4
			c3.4-3,2.3-8.2,2.3-8.2s-0.1-0.9-7.4-3.1c-3.8-1.2-6.5-2.5-8.1-2.7C111.3,67.9,111.4,70.2,112,72.2z"/>
		<path class="st5" d="M127.6,71.8c0,0-0.1-0.9-7.4-3.1c-5.7-1.7-8.8-3.8-9.9-2.3c2.8-0.9,10.7,5.5,10.8,5.6
			c0.1,0.1-0.9-0.3-1.1-0.3c-0.2,0-0.4-0.1-0.5-0.1c0.6,0.4,1.1,1,1.4,1.7c0,0.1-0.8-0.2-1.1-0.4c-0.2-0.1-0.5-0.2-0.7-0.3
			c0.6,0.5,1,1.2,1.4,1.9c0.6,1.5,0.7,3.1,0.8,4.6c0.1,0.9,0.2,1.8,0.3,2.6C129.3,79.9,127.6,71.8,127.6,71.8z"/>
		<path class="st6" d="M127.6,71.8c0,0,0-0.3-1.3-0.9c-0.6,0.4-1.1,0.8-1.6,1.3c-1.5,1.6-2.5,3.6-3,5.8c-0.2,0.9-0.3,1.9-0.3,2.8
			c0,0.3,0.1,0.7,0.2,1C129.3,79.9,127.6,71.8,127.6,71.8z"/>
	</g>
	<g>
		<path class="st3" d="M152.8,71.8c0,0,0.1-0.9,7.4-3.1c6.7-2,9.7-4.6,10.3-1.1c0.6,3.5-1.3,15.7-10.5,14.4
			C150.8,80.7,152.8,71.8,152.8,71.8z"/>
		<path class="st4" d="M168.4,72.2c-0.3,1.2-0.8,2.4-1.5,3.5c-0.5,0.9-1.1,1.7-1.9,2.4c-1.4,1.2-3.1,1.9-4.9,2.3
			c-1.7,0.3-3.4,0.2-5-0.4c-3.4-3-2.3-8.2-2.3-8.2s0.1-0.9,7.4-3.1c3.8-1.2,6.5-2.5,8.1-2.7C169,67.9,168.9,70.2,168.4,72.2z"/>
		<path class="st5" d="M152.8,71.8c0,0,0.1-0.9,7.4-3.1c5.7-1.7,8.8-3.8,9.9-2.3c-2.8-0.9-10.7,5.5-10.8,5.6
			c-0.1,0.1,0.9-0.3,1.1-0.3c0.2,0,0.4-0.1,0.5-0.1c-0.6,0.4-1.1,1-1.4,1.7c0,0.1,0.8-0.2,1.1-0.4c0.2-0.1,0.5-0.2,0.7-0.3
			c-0.6,0.5-1,1.2-1.4,1.9c-0.6,1.5-0.7,3.1-0.8,4.6c-0.1,0.9-0.2,1.8-0.3,2.6C151,79.9,152.8,71.8,152.8,71.8z"/>
		<path class="st6" d="M152.8,71.8c0,0,0-0.3,1.3-0.9c0.6,0.4,1.1,0.8,1.6,1.3c1.5,1.6,2.5,3.6,3,5.8c0.2,0.9,0.3,1.9,0.3,2.8
			c0,0.3-0.1,0.7-0.2,1C151,79.9,152.8,71.8,152.8,71.8z"/>
	</g>
	<path class="st7" d="M157,76.5c-4.2-9.5-14.5-9.4-16.9-9.2c-2.4-0.2-12.7-0.2-16.9,9.2c-4.7,10.5,3.5,30.4,16.4,32.4v0.1
		c0.2,0,0.4,0,0.5-0.1c0.2,0,0.4,0,0.5,0.1v-0.1C153.4,106.9,161.6,87,157,76.5z"/>
	<path class="st5" d="M155.8,75.9c-3.9-8.9-13.5-8.8-15.8-8.6c-2.3-0.2-11.8-0.2-15.8,8.6c-4.4,9.8,3.3,28.4,15.3,30.3v0.1
		c0.2,0,0.3,0,0.5,0c0.2,0,0.3,0,0.5,0v-0.1C152.5,104.3,160.2,85.7,155.8,75.9z"/>
	<g>
		<path class="st3" d="M146.7,96.4c-2.1-2.8-5.7-3-6.7-3c-1,0-4.6,0.1-6.7,3c-2.5,3.3-6,11.8,4.1,13.4l0,0c0,0,1.8,0.5,4.8,0
			C152.8,108.4,149.2,99.7,146.7,96.4z"/>
		<g>
			<path class="st3" d="M140.1,94.2c1,0,4.6,0.1,6.7,3c1.1,1.5,2.5,4.2,2.6,6.8c0.1-2.8-1.4-5.8-2.6-7.5c-2.1-2.8-5.7-3-6.7-3
				c-1,0-4.6,0.1-6.7,3c-1.2,1.7-2.8,4.7-2.6,7.5c0.1-2.6,1.5-5.2,2.6-6.8C135.5,94.3,139.1,94.1,140.1,94.2z"/>
		</g>
		<g>
			<g>
				<path class="st8" d="M140.1,105.5c-0.1,0-0.2-0.1-0.2-0.3v-2.8c0-0.2,0.1-0.3,0.2-0.3c0.1,0,0.2,0.1,0.2,0.3v2.8
					C140.3,105.4,140.2,105.5,140.1,105.5z"/>
				<path class="st8" d="M137.3,107.1c-0.5,0-1.1-0.1-1.5-0.3c-0.6-0.3-1-0.7-1-1.2c-0.1-0.6,0.3-1,0.3-1c0.1-0.1,0.2-0.1,0.3,0
					c0.1,0.1,0.1,0.3,0,0.4c0,0-0.2,0.2-0.2,0.5c0,0.1,0.1,0.4,0.7,0.7c1,0.5,2.7,0.3,3.4-0.4c0.3-0.2,0.4-0.5,0.4-0.7
					c0-0.2,0.1-0.3,0.2-0.3c0.1,0,0.2,0.1,0.2,0.3c0,0.4-0.2,0.9-0.6,1.2C139.1,106.8,138.2,107.1,137.3,107.1z"/>
				<path class="st8" d="M142.8,107.1c-0.9,0-1.8-0.3-2.4-0.8c-0.4-0.3-0.6-0.7-0.6-1.2c0-0.2,0.1-0.3,0.2-0.3
					c0.1,0,0.2,0.1,0.2,0.3c0,0.3,0.1,0.5,0.4,0.7c0.8,0.7,2.4,0.9,3.4,0.4c0.6-0.3,0.7-0.6,0.7-0.7c0-0.2-0.2-0.5-0.2-0.5
					c-0.1-0.1-0.1-0.3,0-0.4c0.1-0.1,0.2-0.1,0.3,0c0,0,0.4,0.4,0.3,1c-0.1,0.5-0.4,0.9-1,1.2C143.8,107,143.3,107.1,142.8,107.1z"
					/>
			</g>
			<path class="st9" d="M144.3,100c-0.1-1.4-2.9-1.4-4.3-1.3c-1.4-0.1-4.2-0.1-4.3,1.3c-0.1,1.7,0.2,4.1,4.1,4.4l0,0
				c0.1,0,0.3,0,0.3,0l0,0C144.1,104.1,144.4,101.8,144.3,100z"/>
		</g>
	</g>
	<path class="st6" d="M148.2,91.4c-0.1,0-0.2,0-0.4-0.1c-7.7-4.2-14.9-0.1-15,0c-0.4,0.2-0.9,0.1-1.1-0.3c-0.2-0.4-0.1-0.9,0.3-1.1
		c0.3-0.2,8.1-4.6,16.5,0c0.4,0.2,0.5,0.7,0.3,1.1C148.8,91.3,148.5,91.4,148.2,91.4z"/>
	<g>
		<g>
			<path class="st10" d="M136.2,89.1c0,0,0.6-7.3-5.4-7.6l-4.9,0.4c0,0,0.8,7.4,5.8,7.6C136.6,89.5,136.2,89.1,136.2,89.1z"/>
			<g>
				<defs>
					<path id="SVGID_1_" d="M136.2,89.1c0,0,0.2-6.5-5.3-6.7l-4.6,0.5c0,0,0.8,6.4,5.4,6.5C136.2,89.5,136.2,89.1,136.2,89.1z"/>
				</defs>
				<use xlink:href="#SVGID_1_"  style="overflow:visible;fill:#FFFFFF;"/>
				<clipPath id="SVGID_2_">
					<use xlink:href="#SVGID_1_"  style="overflow:visible;"/>
				</clipPath>
				<g class="st11">
					<g>
						<path class="st12" d="M135.2,86.4c0,2.3-1.8,4.1-3.9,4.1c-2.2,0-3.9-1.8-3.9-4.1c0-2.3,1.8-4.1,3.9-4.1
							C133.4,82.2,135.2,84.1,135.2,86.4z"/>
						<g>
							<ellipse class="st13" cx="131.3" cy="86.4" rx="2.5" ry="2.7"/>
							<ellipse class="st14" cx="129.7" cy="84.7" rx="0.9" ry="1"/>
						</g>
					</g>
				</g>
			</g>
		</g>
		<g>
			<path class="st10" d="M144.7,89.1c0,0-0.6-7.3,5.4-7.6l4.9,0.4c0,0-0.8,7.4-5.8,7.6C144.4,89.5,144.7,89.1,144.7,89.1z"/>
			<g>
				<defs>
					<path id="SVGID_3_" d="M144.7,89.1c0,0-0.2-6.5,5.3-6.7l4.6,0.5c0,0-0.8,6.4-5.4,6.5C144.8,89.5,144.7,89.1,144.7,89.1z"/>
				</defs>
				<use xlink:href="#SVGID_3_"  style="overflow:visible;fill:#FFFFFF;"/>
				<clipPath id="SVGID_4_">
					<use xlink:href="#SVGID_3_"  style="overflow:visible;"/>
				</clipPath>
				<g class="st15">
					<g>
						<ellipse class="st12" cx="149.7" cy="86.4" rx="3.9" ry="4.1"/>
						<g>
							<ellipse class="st13" cx="149.7" cy="86.4" rx="2.5" ry="2.7"/>
							<path class="st14" d="M146.9,84.7c0,0.5,0.4,1,0.9,1s0.9-0.4,0.9-1s-0.4-1-0.9-1S146.9,84.1,146.9,84.7z"/>
						</g>
					</g>
				</g>
			</g>
		</g>
	</g>
</g>
<g>
	<g>
		<g>
			<path class="st16" d="M199.7-29.2c0,0,0.3-6.8-6.7-6.5c-8.6,0.4-11.4,12.8-0.4,14.8L199.7-29.2z"/>
			<path class="st17" d="M198-28.2c0,0,0.2-4.4-4.3-4.1c-5.5,0.3-7.3,8.2-0.3,9.5L198-28.2z"/>
		</g>
		<g>
			<path class="st16" d="M224.8-29.2c0,0-0.3-6.8,6.7-6.5c8.6,0.4,11.4,12.8,0.4,14.8L224.8-29.2z"/>
			<path class="st17" d="M226.4-28.2c0,0-0.2-4.4,4.3-4.1c5.5,0.3,7.3,8.2,0.3,9.5L226.4-28.2z"/>
		</g>
	</g>
	<path class="st18" d="M237.1-12.4c0-12.2-11.2-22.1-24.9-22.1c-13.8,0-24.9,9.9-24.9,22.1c0,4.1,1.3,8,3.5,11.2
		c-0.7,0.9-1.1,1.8-1.1,2.8c0,5,10.1,9,22.6,9c12.5,0,22.6-4,22.6-9c0-1-0.4-1.9-1.1-2.8C235.9-4.5,237.1-8.3,237.1-12.4z"/>
	<g>
		<path class="st19" d="M212.2,9.2c-11.9,0-21.7-3.7-22.5-8.3c0,0.2-0.1,0.5-0.1,0.7c0,5,10.1,9,22.6,9c12.5,0,22.6-4,22.6-9
			c0-0.2,0-0.5-0.1-0.7C233.9,5.6,224.1,9.2,212.2,9.2z"/>
		<path class="st18" d="M234.8,0.9c0-0.2,0.1-0.4,0.1-0.7c0-0.8-0.2-1.5-0.7-2.2c-0.1,0.2-0.3,0.5-0.5,0.7
			C234.2-0.5,234.6,0.2,234.8,0.9z"/>
	</g>
	<path class="st16" d="M207.2-21.1c-1.5-0.6-3.2-0.5-4.8-0.1c-1.7,0.4-3.4,1.2-4.9,2.2c-1.9,1.2-3.5,3-4.6,5c-1.3,2.3-2.2,5.3-1,7.8
		c1,2.2,3.2,3.3,5.4,3.7c2.2,0.4,4.5-0.1,6.5-1.2c1.9-1.1,3.5-2.8,4.6-4.8c1.1-2,1.7-4.3,1.6-6.6c0-1.2-0.2-2.4-0.6-3.5
		c-0.2-0.6-0.5-1.1-0.8-1.5C208.2-20.6,207.8-20.8,207.2-21.1z"/>
	<path class="st16" d="M217-21.1c1.5-0.6,3.2-0.5,4.8-0.1c1.7,0.4,3.4,1.2,4.9,2.2c1.9,1.2,3.5,3,4.6,5c1.3,2.3,2.2,5.3,1,7.8
		c-1,2.2-3.2,3.3-5.4,3.7c-2.2,0.4-4.5-0.1-6.5-1.2c-1.9-1.1-3.5-2.8-4.6-4.8c-1.1-2-1.7-4.3-1.6-6.6c0-1.2,0.2-2.4,0.6-3.5
		c0.2-0.6,0.5-1.1,0.8-1.5C216-20.6,216.5-20.8,217-21.1z"/>
	<path class="st19" d="M199.1,1.1c-0.2,0-0.4-0.1-0.6-0.2c-0.4-0.3-0.4-1-0.1-1.4c0.2-0.3,5.6-7.1,13.5-7.3
		c4.9-0.2,9.7,2.3,14.1,7.3c0.3,0.4,0.3,1,0,1.4c-0.4,0.4-1,0.3-1.3,0c-4.1-4.6-8.3-6.8-12.7-6.7c-7.1,0.2-12.1,6.5-12.1,6.6
		C199.6,1,199.4,1.1,199.1,1.1z"/>
	<g>
		<g>
			<g>
				<ellipse class="st14" cx="202.7" cy="-13.1" rx="4.8" ry="5.1"/>
				<g>
					<ellipse class="st12" cx="202.7" cy="-13.1" rx="3.6" ry="3.8"/>
					<g>
						<path class="st13" d="M205.7-13.1c0,1.7-1.3,3.1-3,3.1c-1.6,0-3-1.4-3-3.1c0-1.7,1.3-3.1,3-3.1
							C204.3-16.2,205.7-14.8,205.7-13.1z"/>
						<ellipse class="st14" cx="201.6" cy="-14.6" rx="0.5" ry="0.6"/>
						<ellipse class="st14" cx="200.6" cy="-13.2" rx="0.3" ry="0.4"/>
					</g>
				</g>
			</g>
		</g>
		<g>
			<g>
				<ellipse class="st14" cx="221.7" cy="-13.1" rx="4.8" ry="5.1"/>
				<g>
					<ellipse class="st12" cx="221.7" cy="-13.1" rx="3.6" ry="3.8"/>
					<g>
						<path class="st13" d="M224.7-13.1c0,1.7-1.3,3.1-3,3.1c-1.6,0-3-1.4-3-3.1c0-1.7,1.3-3.1,3-3.1
							C223.4-16.2,224.7-14.8,224.7-13.1z"/>
						<path class="st14" d="M221.2-14.6c0,0.3-0.2,0.6-0.5,0.6s-0.5-0.3-0.5-0.6c0-0.3,0.2-0.6,0.5-0.6S221.2-14.9,221.2-14.6z"/>
						<path class="st14" d="M220-13.2c0,0.2-0.2,0.4-0.3,0.4s-0.3-0.2-0.3-0.4c0-0.2,0.2-0.4,0.3-0.4S220-13.4,220-13.2z"/>
					</g>
				</g>
			</g>
		</g>
	</g>
	<g>
		<g>
			<path class="st20" d="M199.7-21.6c-0.1,0-0.2,0-0.2-0.1c-0.2-0.1-0.2-0.4-0.1-0.6c0,0,1.7-2.6,4.5-1c0.2,0.1,0.3,0.4,0.2,0.6
				c-0.1,0.2-0.3,0.3-0.5,0.2c-2.2-1.2-3.5,0.6-3.5,0.7C199.9-21.7,199.8-21.6,199.7-21.6z"/>
		</g>
		<g>
			<path class="st20" d="M224.8-21.6c-0.1,0-0.3-0.1-0.3-0.2c-0.1-0.1-1.3-1.9-3.5-0.7c-0.2,0.1-0.4,0-0.5-0.2
				c-0.1-0.2,0-0.5,0.2-0.6c2.9-1.6,4.5,1,4.5,1c0.1,0.2,0.1,0.5-0.1,0.6C224.9-21.6,224.8-21.6,224.8-21.6z"/>
		</g>
	</g>
	<g>
		<g>
			<g>
				<g>
					<path class="st21" d="M212.2,2.7c-0.1,0-0.3-0.1-0.3-0.3v-3.9c0-0.2,0.1-0.3,0.3-0.3c0.1,0,0.3,0.1,0.3,0.3v3.9
						C212.5,2.5,212.4,2.7,212.2,2.7z"/>
					<path class="st21" d="M208.8,5.7c-0.7,0-1.4-0.2-1.9-0.6c-2.1-1.6-0.9-3.7-0.9-3.8c0.1-0.1,0.2-0.2,0.4-0.1
						c0.1,0.1,0.2,0.3,0.1,0.4l0,0c0,0.1-1,1.7,0.7,3c0.8,0.6,2,0.7,3.1,0.2c1-0.6,1.7-1.6,1.7-2.8c0-0.2,0.1-0.3,0.3-0.3
						c0.1,0,0.3,0.1,0.3,0.3c0,1.4-0.7,2.6-2,3.3C210,5.6,209.4,5.7,208.8,5.7z"/>
					<path class="st21" d="M215.6,5.7c-0.6,0-1.2-0.1-1.7-0.4c-1.2-0.7-2-1.9-2-3.3c0-0.2,0.1-0.3,0.3-0.3c0.1,0,0.3,0.1,0.3,0.3
						c0,1.2,0.6,2.2,1.7,2.8c1,0.5,2.2,0.5,3.1-0.2c1.7-1.3,0.8-3,0.7-3c-0.1-0.1,0-0.3,0.1-0.4c0.1-0.1,0.3,0,0.4,0.1
						c0,0,1.2,2.1-0.9,3.8C217,5.5,216.3,5.7,215.6,5.7z"/>
				</g>
			</g>
		</g>
		<path class="st16" d="M216.3-2.4c-0.7-0.5-2.2-0.5-2.6-0.5c-0.2,0-2.9,0-3.1,0c-0.4,0-1.9,0-2.6,0.5c-1.7,1.1,1.1,2.3,4,2.4
			c0,0,0,0,0,0c0,0,0.1,0,0.1,0c0,0,0.1,0,0.1,0c0,0,0,0,0,0C215.2-0.1,218-1.3,216.3-2.4z"/>
	</g>
</g>
<g>
	<path class="st22" d="M-515.7-108.5h-65.2c-3.8,0-6.8,3.1-6.8,7v67.2c0,3.9,3,7,6.8,7h65.2c3.8,0,6.8-3.1,6.8-7v-67.2
		C-508.9-105.3-512-108.5-515.7-108.5z"/>
	<path class="st23" d="M-517-104.4h-62.6c-2.3,0-4.2,1.9-4.2,4.3v64.6c0,2.4,1.9,4.3,4.2,4.3h62.6c2.3,0,4.2-1.9,4.2-4.3v-64.6
		C-512.8-102.5-514.7-104.4-517-104.4z"/>
	<path class="st24" d="M-522.3-79.2c-0.9-1.2-0.4-2.5,0.7-5.3c0.8-2.1-0.1-4-0.6-4.7l0,0c0,0,0,0,0-0.1c-0.1-0.1-0.2-0.2-0.2-0.3
		c-0.2-0.2-0.4-0.6-0.7-0.8c-0.1-0.1-0.3,0-0.6,0.2c0-0.1-0.1-0.2-0.1-0.2c-0.3-0.5-4.1,1.1-4.4,2l-1.1,5.6
		c-2.9-0.1-4.3,0.6-5.6,2.1c-1.4,1.5-2.7,4-5.6,7.3c-5.8,6.6-15.2,6.8-19.8,5.9c-4.6-0.8-9.1-1-10.1-0.9c-0.2,0-0.4,0-0.6,0
		c-0.7-0.1-1.3-0.6-1.8-0.5c-0.1,0-0.1,0-0.2,0.1c-0.6,0.3-1.6,2-1.6,2.7c0,0.8,1.7,1.5,1.7,1.5c2.3,6,14.9,12.4,33.6,6
		c0.1,0,0.2-0.1,0.3-0.1c-4,3.5-8.8,5.3-11.9,5.9c-5,1-9.5,2.7-10.4,3.2c-0.2,0.1-0.4,0.2-0.6,0.2c-0.8,0.1-1.5-0.1-2,0.2
		c-0.1,0-0.1,0.1-0.2,0.1c-0.5,0.6-0.8,2.7-0.6,3.4c0.3,0.8,2.3,0.8,2.3,0.8c4.6,5.1,19.6,6.4,35.8-7.5
		C-510.4-66.1-521.4-78-522.3-79.2z M-526.7-80.4c-0.2-0.8,0-1.5,0.6-2.3l0.4,2.2c-0.3,0.1-0.6,0.2-0.9,0.4
		C-526.7-80.2-526.7-80.3-526.7-80.4z"/>
	<g>
		<g>
			<path class="st25" d="M-529.4-86.8c-1.8,2.1-2.7,3-2.3,4.4c0.4,1.3,6,15.5-12.7,21.9c-18.7,6.4-31.3,0-33.6-6
				c0,0-1.7-0.8-1.7-1.5c0-0.7,1-2.4,1.6-2.7c0.1,0,0.1-0.1,0.2-0.1c0.5,0,1.1,0.4,1.8,0.5c0.2,0,0.4,0.1,0.6,0
				c1-0.1,5.5,0,10.1,0.9c4.6,0.8,14,0.6,19.8-5.9c2.9-3.3,4.2-5.7,5.6-7.3c1.3-1.5,2.7-2.2,5.6-2.1l1.1-5.6l2.5-0.6l2.2-0.5
				C-528.5-91.6-527.6-88.9-529.4-86.8z"/>
			<path class="st26" d="M-529.4-86.8c-1.8,2.1-2.7,3-2.3,4.4c0.4,1.3,6,15.5-12.7,21.9c-18.7,6.4-31.3,0-33.6-6
				c0,0-1.7-0.8-1.7-1.5c0-0.7,1-2.4,1.6-2.7c0.1,0,0.1-0.1,0.2-0.1c0.5,0,1.1,0.4,1.8,0.5c0.2,1.3,0.8,2.6,1.7,3.7
				c1.2,1.5,2.9,2.5,4.6,3.3c7.2,3.3,15.8,3,22.7-0.9c2.5-1.4,4.8-3.2,6.4-5.6c1.6-2.4,2.4-5.4,1.9-8.3c-0.3-1.5-0.9-3-1.2-4.5
				c1.3-1.5,2.7-2.2,5.6-2.1l1.1-5.6l2.5-0.6l2.2-0.5C-528.5-91.6-527.6-88.9-529.4-86.8z"/>
			<path class="st26" d="M-529.4-86.8c-1.8,2.1-2.7,3-2.3,4.4c0.4,1.3,6,15.5-12.7,21.9c-18.7,6.4-31.3,0-33.6-6
				c0,0-1.7-0.8-1.7-1.5c0-0.7,1-2.4,1.6-2.7c-0.3,1.4,0.1,2.9,0.9,4.1c1,1.5,2.5,2.5,4,3.3c8.9,5,20.2,5.1,29.2,0.4
				c2.6-1.4,5-3.1,6.9-5.4c1.9-2.3,3.2-5.1,3.5-8.1c0.2-2.1-0.1-4.2,0.1-6.3c0.2-2.1,1.3-4.3,3.2-5c-0.2-1.1-0.4-2.2-0.5-3.2
				l2.2-0.5C-528.5-91.6-527.6-88.9-529.4-86.8z"/>
			<path class="st27" d="M-540.5-78.8c-2.1,3.8-5.3,7-9,9.1c-3.7,2.1-8.1,3-12.3,2.8c4.1,2.1,9.1,2,13.3,0.2c4.2-1.8,7.7-5.1,10.4-9
				c1-1.5,3-4.4,1.8-6.3C-537.7-84.1-539.9-79.7-540.5-78.8z"/>
			<path class="st27" d="M-569.9-68.2c-0.3,0-0.5,0.1-0.7,0.2c-0.2,0.1-0.4,0.4-0.4,0.6c0,0.4,0.4,0.6,0.7,0.7
				c1,0.4,5.5,1.7,5.9,0.1C-564-68.5-568.9-68.3-569.9-68.2z"/>
			<path class="st25" d="M-533.2-90.4c0,0,0.1,0.8,2.2,0.3c2.2-0.5,2.6-1,2.6-1s-0.2-0.8-0.4-1.3C-529.1-92.9-532.9-91.3-533.2-90.4
				z"/>
		</g>
		<g>
			<path class="st25" d="M-526.6-86.6c-1,2.8-1.6,4.1-0.7,5.3c0.9,1.2,11.8,13.1-4.4,27c-16.2,13.9-31.3,12.6-35.8,7.5
				c0,0-2-0.1-2.3-0.8c-0.2-0.7,0.1-2.8,0.6-3.4c0-0.1,0.1-0.1,0.2-0.1c0.4-0.2,1.2,0,2-0.2c0.2,0,0.4-0.1,0.6-0.2
				c1-0.5,5.5-2.2,10.4-3.2c5-1,14.3-5,17.5-13.9c1.7-4.5,2.1-7.4,2.9-9.5c0.8-2,1.9-3.3,4.8-4.4l-1.1-6.1l2.3-1.6l2-1.4
				C-527.4-91.7-525.5-89.4-526.6-86.6z"/>
			<path class="st26" d="M-526.6-86.6c-1,2.8-1.6,4.1-0.7,5.3c0.9,1.2,11.8,13.1-4.4,27c-16.2,13.9-31.3,12.6-35.8,7.5
				c0,0-2-0.1-2.3-0.8c-0.2-0.7,0.1-2.8,0.6-3.4c0-0.1,0.1-0.1,0.2-0.1c0.4-0.2,1.2,0,2-0.2c0.7,1.3,1.8,2.3,3.1,3
				c1.8,1,3.8,1.3,5.9,1.4c8.4,0.4,16.9-3.4,22.4-10c2-2.4,3.6-5.1,4.3-8.2c0.7-3,0.4-6.4-1.2-9.1c-0.8-1.4-2-2.6-2.9-4
				c0.8-2,1.9-3.3,4.8-4.4l-1.1-6.1l2.3-1.6l2-1.4C-527.4-91.7-525.5-89.4-526.6-86.6z"/>
			<path class="st26" d="M-526.6-86.6c-1,2.8-1.6,4.1-0.7,5.3c0.9,1.2,11.8,13.1-4.4,27c-16.2,13.9-31.3,12.6-35.8,7.5
				c0,0-2-0.1-2.3-0.8c-0.2-0.7,0.1-2.8,0.6-3.4c0.2,1.5,1.2,2.9,2.5,3.7c1.5,1.1,3.4,1.5,5.2,1.7c10.8,1.4,22.1-3,29.3-11.4
				c2.1-2.4,3.8-5.1,4.9-8.1c1-3,1.3-6.4,0.5-9.5c-0.6-2.2-1.7-4.2-2.3-6.4c-0.5-2.2-0.4-4.8,1.3-6.3c-0.6-1-1.2-2-1.8-3l2-1.4
				C-527.4-91.7-525.5-89.4-526.6-86.6z"/>
			<path class="st27" d="M-534.6-74.1c-0.7,4.7-2.6,9.1-5.6,12.7c-3,3.6-6.9,6.3-11.3,7.7c4.9,0.5,9.8-1.6,13.4-5.1
				c3.6-3.5,5.8-8.2,7-13.1c0.4-1.9,1.3-5.6-0.6-7C-533.8-80.5-534.4-75.2-534.6-74.1z"/>
			<path class="st27" d="M-560.1-51.7c-0.2,0.1-0.5,0.3-0.6,0.5c-0.2,0.2-0.2,0.5-0.1,0.8c0.2,0.3,0.6,0.4,1,0.4
				c1.1,0,6.2-0.5,5.9-2.3C-554.3-54.4-559.1-52.2-560.1-51.7z"/>
			<path class="st25" d="M-531.7-88.6c0,0,0.4,0.8,2.3-0.6c2-1.4,2.3-2,2.3-2s-0.5-0.8-0.9-1.1C-528.5-92.7-531.8-89.7-531.7-88.6z"
				/>
		</g>
	</g>
</g>
<path class="st22" d="M-202.9,60.9h-65.2c-3.8,0-6.8,3.1-6.8,7v67.2c0,3.9,3,7,6.8,7h65.2c3.8,0,6.8-3.1,6.8-7V67.9
	C-196.1,64.1-199.2,60.9-202.9,60.9z"/>
<path class="st23" d="M-292.2,122.9h-62.6c-2.3,0-4.2,1.9-4.2,4.3v64.6c0,2.4,1.9,4.3,4.2,4.3h62.6c2.3,0,4.2-1.9,4.2-4.3v-64.6
	C-288,124.9-289.9,122.9-292.2,122.9z"/>
<path class="st24" d="M158.2-128.9c-0.9-1.2-0.4-2.5,0.7-5.3c0.8-2.1-0.1-4-0.6-4.7l0,0c0,0,0,0,0-0.1c-0.1-0.1-0.2-0.2-0.2-0.3
	c-0.2-0.2-0.4-0.6-0.7-0.8c-0.1-0.1-0.3,0-0.6,0.2c0-0.1-0.1-0.2-0.1-0.2c-0.3-0.5-4.1,1.1-4.4,2l-1.1,5.6c-2.9-0.1-4.3,0.6-5.6,2.1
	c-1.4,1.5-2.7,4-5.6,7.3c-5.8,6.6-15.2,6.8-19.8,5.9c-4.6-0.8-9.1-1-10.1-0.9c-0.2,0-0.4,0-0.6,0c-0.7-0.1-1.3-0.6-1.8-0.5
	c-0.1,0-0.1,0-0.2,0.1c-0.6,0.3-1.6,2-1.6,2.7c0,0.8,1.7,1.5,1.7,1.5c2.3,6,14.9,12.4,33.6,6c0.1,0,0.2-0.1,0.3-0.1
	c-4,3.5-8.8,5.3-11.9,5.9c-5,1-9.5,2.7-10.4,3.2c-0.2,0.1-0.4,0.2-0.6,0.2c-0.8,0.1-1.5-0.1-2,0.2c-0.1,0-0.1,0.1-0.2,0.1
	c-0.5,0.6-0.8,2.7-0.6,3.4c0.3,0.8,2.3,0.8,2.3,0.8c4.6,5.1,19.6,6.4,35.8-7.5C170-115.8,159.1-127.7,158.2-128.9z M153.7-130.1
	c-0.2-0.8,0-1.5,0.6-2.3l0.4,2.2c-0.3,0.1-0.6,0.2-0.9,0.4C153.8-129.9,153.8-130,153.7-130.1z"/>
<g>
	<g>
		<path class="st25" d="M151.1-136.5c-1.8,2.1-2.7,3-2.3,4.4c0.4,1.3,6,15.5-12.7,21.9c-18.7,6.4-31.3,0-33.6-6c0,0-1.7-0.8-1.7-1.5
			c0-0.7,1-2.4,1.6-2.7c0.1,0,0.1-0.1,0.2-0.1c0.5,0,1.1,0.4,1.8,0.5c0.2,0,0.4,0.1,0.6,0c1-0.1,5.5,0,10.1,0.9
			c4.6,0.8,14,0.6,19.8-5.9c2.9-3.3,4.2-5.7,5.6-7.3c1.3-1.5,2.7-2.2,5.6-2.1l1.1-5.6l2.5-0.6l2.2-0.5
			C152-141.3,152.9-138.6,151.1-136.5z"/>
		<path class="st26" d="M151.1-136.5c-1.8,2.1-2.7,3-2.3,4.4c0.4,1.3,6,15.5-12.7,21.9c-18.7,6.4-31.3,0-33.6-6c0,0-1.7-0.8-1.7-1.5
			c0-0.7,1-2.4,1.6-2.7c0.1,0,0.1-0.1,0.2-0.1c0.5,0,1.1,0.4,1.8,0.5c0.2,1.3,0.8,2.6,1.7,3.7c1.2,1.5,2.9,2.5,4.6,3.3
			c7.2,3.3,15.8,3,22.7-0.9c2.5-1.4,4.8-3.2,6.4-5.6c1.6-2.4,2.4-5.4,1.9-8.3c-0.3-1.5-0.9-3-1.2-4.5c1.3-1.5,2.7-2.2,5.6-2.1
			l1.1-5.6l2.5-0.6l2.2-0.5C152-141.3,152.9-138.6,151.1-136.5z"/>
		<path class="st26" d="M151.1-136.5c-1.8,2.1-2.7,3-2.3,4.4c0.4,1.3,6,15.5-12.7,21.9c-18.7,6.4-31.3,0-33.6-6c0,0-1.7-0.8-1.7-1.5
			c0-0.7,1-2.4,1.6-2.7c-0.3,1.4,0.1,2.9,0.9,4.1c1,1.5,2.5,2.5,4,3.3c8.9,5,20.2,5.1,29.2,0.4c2.6-1.4,5-3.1,6.9-5.4
			c1.9-2.3,3.2-5.1,3.5-8.1c0.2-2.1-0.1-4.2,0.1-6.3c0.2-2.1,1.3-4.3,3.2-5c-0.2-1.1-0.4-2.2-0.5-3.2l2.2-0.5
			C152-141.3,152.9-138.6,151.1-136.5z"/>
		<path class="st27" d="M140-128.5c-2.1,3.8-5.3,7-9,9.1s-8.1,3-12.3,2.8c4.1,2.1,9.1,2,13.3,0.2c4.2-1.8,7.7-5.1,10.4-9
			c1-1.5,3-4.4,1.8-6.3C142.8-133.8,140.6-129.4,140-128.5z"/>
		<path class="st27" d="M110.6-117.9c-0.3,0-0.5,0.1-0.7,0.2c-0.2,0.1-0.4,0.4-0.4,0.6c0,0.4,0.4,0.6,0.7,0.7c1,0.4,5.5,1.7,5.9,0.1
			C116.5-118.2,111.6-118,110.6-117.9z"/>
		<path class="st25" d="M147.3-140.1c0,0,0.1,0.8,2.2,0.3c2.2-0.5,2.6-1,2.6-1s-0.2-0.8-0.4-1.3C151.4-142.6,147.6-141,147.3-140.1z
			"/>
	</g>
	<g>
		<path class="st25" d="M153.9-136.3c-1,2.8-1.6,4.1-0.7,5.3c0.9,1.2,11.8,13.1-4.4,27s-31.3,12.6-35.8,7.5c0,0-2-0.1-2.3-0.8
			c-0.2-0.7,0.1-2.8,0.6-3.4c0-0.1,0.1-0.1,0.2-0.1c0.4-0.2,1.2,0,2-0.2c0.2,0,0.4-0.1,0.6-0.2c1-0.5,5.5-2.2,10.4-3.2
			c5-1,14.3-5,17.5-13.9c1.7-4.5,2.1-7.4,2.9-9.5c0.8-2,1.9-3.3,4.8-4.4l-1.1-6.1l2.3-1.6l2-1.4C153-141.4,155-139.1,153.9-136.3z"
			/>
		<path class="st26" d="M153.9-136.3c-1,2.8-1.6,4.1-0.7,5.3c0.9,1.2,11.8,13.1-4.4,27s-31.3,12.6-35.8,7.5c0,0-2-0.1-2.3-0.8
			c-0.2-0.7,0.1-2.8,0.6-3.4c0-0.1,0.1-0.1,0.2-0.1c0.4-0.2,1.2,0,2-0.2c0.7,1.3,1.8,2.3,3.1,3c1.8,1,3.8,1.3,5.9,1.4
			c8.4,0.4,16.9-3.4,22.4-10c2-2.4,3.6-5.1,4.3-8.2c0.7-3,0.4-6.4-1.2-9.1c-0.8-1.4-2-2.6-2.9-4c0.8-2,1.9-3.3,4.8-4.4l-1.1-6.1
			l2.3-1.6l2-1.4C153-141.4,155-139.1,153.9-136.3z"/>
		<path class="st26" d="M153.9-136.3c-1,2.8-1.6,4.1-0.7,5.3c0.9,1.2,11.8,13.1-4.4,27s-31.3,12.6-35.8,7.5c0,0-2-0.1-2.3-0.8
			c-0.2-0.7,0.1-2.8,0.6-3.4c0.2,1.5,1.2,2.9,2.5,3.7c1.5,1.1,3.4,1.5,5.2,1.7c10.8,1.4,22.1-3,29.3-11.4c2.1-2.4,3.8-5.1,4.9-8.1
			c1-3,1.3-6.4,0.5-9.5c-0.6-2.2-1.7-4.2-2.3-6.4c-0.5-2.2-0.4-4.8,1.3-6.3c-0.6-1-1.2-2-1.8-3l2-1.4
			C153-141.4,155-139.1,153.9-136.3z"/>
		<path class="st27" d="M145.9-123.8c-0.7,4.7-2.6,9.1-5.6,12.7c-3,3.6-6.9,6.3-11.3,7.7c4.9,0.5,9.8-1.6,13.4-5.1
			c3.6-3.5,5.8-8.2,7-13.1c0.4-1.9,1.3-5.6-0.6-7C146.7-130.3,146.1-125,145.9-123.8z"/>
		<path class="st27" d="M120.4-101.4c-0.2,0.1-0.5,0.3-0.6,0.5c-0.2,0.2-0.2,0.5-0.1,0.8c0.2,0.3,0.6,0.4,1,0.4
			c1.1,0,6.2-0.5,5.9-2.3C126.2-104.1,121.4-101.9,120.4-101.4z"/>
		<path class="st25" d="M148.7-138.3c0,0,0.4,0.8,2.3-0.6c2-1.4,2.3-2,2.3-2s-0.5-0.8-0.9-1.1C152-142.4,148.7-139.4,148.7-138.3z"
			/>
	</g>
</g>
<g>
	<path class="st22" d="M-414.7-132.7h-65.2c-3.8,0-6.8,3.1-6.8,7v67.2c0,3.9,3,7,6.8,7h65.2c3.8,0,6.8-3.1,6.8-7v-67.2
		C-407.9-129.6-410.9-132.7-414.7-132.7z"/>
	<path class="st23" d="M-415.9-128.7h-62.6c-2.3,0-4.2,1.9-4.2,4.3v64.6c0,2.4,1.9,4.3,4.2,4.3h62.6c2.3,0,4.2-1.9,4.2-4.3v-64.6
		C-411.8-126.8-413.6-128.7-415.9-128.7z"/>
	<path class="st24" d="M-426.8-89c1.1-0.7,2.2-1.9,2.9-2.6c1.4-1.4,2.5-2.9,3.5-4.6c2.3-4.1,3.3-8.8,4.3-13.4
		c-3.4,0.6-6.7,1.8-9.4,3.8c-2.7,2.1-4.9,5.1-5.6,8.6c-0.1,0.5-0.2,1.5-0.1,2.6c-2.1-8-5.8-13.7-9-17.4c0,0,0,0,0,0
		c-0.2-0.2-0.4-0.4-0.5-0.6c-4.2-4.7-7.9-6.7-8.1-6.8c-0.4-0.2-0.9-0.1-1.1,0.4c-0.2,0.4-0.1,1,0.4,1.2c0.1,0,3.5,2,7.4,6.2
		c-7.5,3.4-11.6,9.5-13.7,14.1c-1.2,2.7-2,5.2-2.4,7c-0.3-1.3-0.9-2.5-1.3-3c-1.4-2-3.6-3.4-6-3.9c-2.4-0.5-4.8-0.3-7.2,0.3
		c1.9,2.7,3.9,5.5,6.5,7.4c0.5,0.3,1,0.6,1.5,0.9c-4.3,1.8-7.4,6.3-7.4,11.4c0,3,1,5.7,2.7,7.8c1.4,1.7,3.2,3,5.2,3.8
		c1.2,0.5,2.6,0.7,4,0.7c6.6,0,12-5.5,12-12.3c0-5.3-3.2-9.8-7.8-11.6c-0.3-0.1-0.6-0.2-0.8-0.3c0.9-4.5,4.4-16.2,15.9-21.1
		c3.8,4.5,7.7,11.3,9.2,20.6c-6.2,0.5-11.1,5.8-11.1,12.3c0,3,1,5.7,2.7,7.8c1.4,1.7,3.2,3,5.2,3.8c1.2,0.5,2.6,0.7,4,0.7
		c6.6,0,12-5.5,12-12.3C-419.1-82.8-422.3-87.3-426.8-89z"/>
	<g>
		<g>
			<path class="st28" d="M-434.1-97.2c0.7-3.4,2.8-6.5,5.6-8.6s6.1-3.3,9.4-3.8c-1,4.6-2,9.4-4.3,13.4c-1,1.7-2.2,3.2-3.5,4.6
				c-1,1-2.7,2.9-4.2,3.2C-434.3-87.7-434.5-95.2-434.1-97.2z"/>
			<g>
				<path class="st29" d="M-423.6-104.3c0-0.1-0.1-0.3-0.2-0.4c-0.2-0.3-0.7-0.3-1-0.1c-0.1,0.1-12.9,11.6-7,24
					c0.2,0.4,0.6,0.5,0.9,0.3c0.3-0.2,0.5-0.6,0.3-1c-5.4-11.5,6.5-22.2,6.6-22.3C-423.7-103.8-423.6-104-423.6-104.3z"/>
			</g>
		</g>
		<g>
			<path class="st28" d="M-462.7-93.6c-1.4-2-3.6-3.4-6-3.9c-2.4-0.5-4.8-0.3-7.2,0.3c1.9,2.7,3.9,5.5,6.5,7.4
				c1.1,0.8,2.3,1.4,3.5,1.9c0.9,0.4,2.6,1.1,3.6,0.8C-459.9-87.6-461.9-92.5-462.7-93.6z"/>
			<g>
				<path class="st29" d="M-471.5-95.1c0-0.1,0-0.2,0-0.3c0.1-0.3,0.3-0.4,0.6-0.3c0.1,0,11.5,3.7,11.2,13.5c0,0.3-0.2,0.5-0.5,0.5
					c-0.3,0-0.5-0.2-0.5-0.5c0.3-9-10.4-12.4-10.5-12.5C-471.3-94.8-471.4-95-471.5-95.1z"/>
			</g>
		</g>
		<g>
			<path class="st29" d="M-461.1-86.7C-461.2-86.7-461.2-86.7-461.1-86.7c-0.6-0.1-0.9-0.5-0.8-1c0-0.2,0.5-4.7,2.9-9.9
				c2.2-4.9,6.6-11.4,14.9-14.6c0.4-0.2,0.9,0.1,1.1,0.5c0.2,0.4-0.1,1-0.5,1.1c-14.8,5.8-16.7,23-16.7,23.1
				C-460.3-87-460.7-86.7-461.1-86.7z"/>
		</g>
		<g>
			<path class="st29" d="M-434.1-88.9c-0.4,0-0.8-0.3-0.8-0.7c-3.2-20.2-17.6-28.2-17.8-28.3c-0.4-0.2-0.6-0.8-0.4-1.2
				c0.2-0.4,0.7-0.6,1.1-0.4c0.2,0.1,3.9,2.1,8.1,6.8c3.8,4.3,8.8,11.7,10.6,22.7c0.1,0.5-0.2,0.9-0.7,1
				C-434-88.9-434.1-88.9-434.1-88.9z"/>
		</g>
		<path class="st30" d="M-451.4-77.5c0,6.8-5.3,12.3-12,12.3c-1.4,0-2.7-0.2-4-0.7c-2.1-0.8-3.9-2.1-5.2-3.8
			c-1.7-2.1-2.7-4.9-2.7-7.8c0-6.8,5.4-12.3,12-12.3c0.8,0,1.6,0.1,2.4,0.2c0.6,0.1,1.2,0.3,1.8,0.5
			C-454.6-87.3-451.4-82.8-451.4-77.5z"/>
		<path class="st31" d="M-453.1-77.5c0,5.7-4.5,10.3-10,10.3c-3.1,0-5.9-1.5-7.7-3.8c3.4-0.1,6.8-1.9,8.8-4.8c1.3-1.9,2-4.2,2-6.5
			c0-1.1-0.1-2.3-0.4-3.4c-0.2-0.6-0.6-1.4-0.7-2.1C-456.6-86.6-453.1-82.5-453.1-77.5z"/>
		<path class="st32" d="M-468.4-86.8c0.9-0.6,2-1.2,3.2-1c1.5,0.2,2.7,1.7,2.9,3.3c0.2,1.6-0.4,3.2-1.2,4.5
			c-1.3,2.1-3.2,3.8-5.5,4.7c-0.9,0.4-1.9,0.6-2.8,0.3c-2.5-0.9-1.9-4.2-1.1-6.1C-472.1-83.3-470.5-85.4-468.4-86.8z"/>
		<path class="st31" d="M-451.4-77.5c0,6.8-5.3,12.3-12,12.3c-1.4,0-2.7-0.2-4-0.7c0.7,0,1.4-0.2,2-0.3c3.1-0.7,6-2.8,7.5-5.7
			c1.5-2.8,1.7-6.3,1.1-9.4c-0.3-1.5-0.8-3-1.4-4.4c-0.3-0.8-1.5-2.4-1.1-3.4C-454.6-87.3-451.4-82.8-451.4-77.5z"/>
		<path class="st30" d="M-422.1-77.5c0,6.8-5.3,12.3-12,12.3c-1.4,0-2.7-0.2-4-0.7c-2.1-0.8-3.9-2.1-5.2-3.8
			c-1.7-2.1-2.7-4.9-2.7-7.8c0-6.8,5.4-12.3,12-12.3c0.8,0,1.6,0.1,2.4,0.2c0.6,0.1,1.2,0.3,1.8,0.5
			C-425.4-87.3-422.1-82.8-422.1-77.5z"/>
		<path class="st31" d="M-423.9-77.5c0,5.7-4.5,10.3-10,10.3c-3.1,0-5.9-1.5-7.7-3.8c3.4-0.1,6.8-1.9,8.8-4.8c1.3-1.9,2-4.2,2-6.5
			c0-1.1-0.1-2.3-0.4-3.4c-0.2-0.6-0.6-1.4-0.7-2.1C-427.3-86.6-423.9-82.5-423.9-77.5z"/>
		<path class="st32" d="M-439.2-86.8c0.9-0.6,2-1.2,3.2-1c1.5,0.2,2.7,1.7,2.9,3.3c0.2,1.6-0.4,3.2-1.2,4.5
			c-1.3,2.1-3.2,3.8-5.5,4.7c-0.9,0.4-1.9,0.6-2.8,0.3c-2.5-0.9-1.9-4.2-1.1-6.1C-442.8-83.3-441.2-85.4-439.2-86.8z"/>
		<path class="st31" d="M-422.1-77.5c0,6.8-5.3,12.3-12,12.3c-1.4,0-2.7-0.2-4-0.7c0.7,0,1.4-0.2,2-0.3c3.1-0.7,6-2.8,7.5-5.7
			c1.5-2.8,1.7-6.3,1.1-9.4c-0.3-1.5-0.8-3-1.4-4.4c-0.3-0.8-1.5-2.4-1.1-3.4C-425.4-87.3-422.1-82.8-422.1-77.5z"/>
	</g>
</g>
<path class="st22" d="M-201.1,19.9h-65.2c-3.8,0-6.8,3.1-6.8,7v67.2c0,3.9,3,7,6.8,7h65.2c3.8,0,6.8-3.1,6.8-7V26.9
	C-194.3,23.1-197.3,19.9-201.1,19.9z"/>
<path class="st23" d="M-149.9,140.4h-62.6c-2.3,0-4.2,1.9-4.2,4.3v64.6c0,2.4,1.9,4.3,4.2,4.3h62.6c2.3,0,4.2-1.9,4.2-4.3v-64.6
	C-145.7,142.3-147.6,140.4-149.9,140.4z"/>
<path class="st24" d="M-22.7-52.1c1.1-0.7,2.2-1.9,2.9-2.6c1.4-1.4,2.5-2.9,3.5-4.6c2.3-4.1,3.3-8.8,4.3-13.4
	c-3.4,0.6-6.7,1.8-9.4,3.8c-2.7,2.1-4.9,5.1-5.6,8.6c-0.1,0.5-0.2,1.5-0.1,2.6c-2.1-8-5.8-13.7-9-17.4c0,0,0,0,0,0
	c-0.2-0.2-0.4-0.4-0.5-0.6c-4.2-4.7-7.9-6.7-8.1-6.8c-0.4-0.2-0.9-0.1-1.1,0.4c-0.2,0.4-0.1,1,0.4,1.2c0.1,0,3.5,2,7.4,6.2
	c-7.5,3.4-11.6,9.5-13.7,14.1c-1.2,2.7-2,5.2-2.4,7c-0.3-1.3-0.9-2.5-1.3-3c-1.4-2-3.6-3.4-6-3.9c-2.4-0.5-4.8-0.3-7.2,0.3
	c1.9,2.7,3.9,5.5,6.5,7.4c0.5,0.3,1,0.6,1.5,0.9c-4.3,1.8-7.4,6.3-7.4,11.4c0,3,1,5.7,2.7,7.8c1.4,1.7,3.2,3,5.2,3.8
	c1.2,0.5,2.6,0.7,4,0.7c6.6,0,12-5.5,12-12.3c0-5.3-3.2-9.8-7.8-11.6c-0.3-0.1-0.6-0.2-0.8-0.3c0.9-4.5,4.4-16.2,15.9-21.1
	c3.8,4.5,7.7,11.3,9.2,20.6c-6.2,0.5-11.1,5.8-11.1,12.3c0,3,1,5.7,2.7,7.8c1.4,1.7,3.2,3,5.2,3.8c1.2,0.5,2.6,0.7,4,0.7
	c6.6,0,12-5.5,12-12.3C-15-45.8-18.2-50.3-22.7-52.1z"/>
<g>
	<g>
		<path class="st28" d="M-30-60.2c0.7-3.4,2.8-6.5,5.6-8.6c2.7-2.1,6.1-3.3,9.4-3.8c-1,4.6-2,9.4-4.3,13.4c-1,1.7-2.2,3.2-3.5,4.6
			c-1,1-2.7,2.9-4.2,3.2C-30.2-50.7-30.4-58.2-30-60.2z"/>
		<g>
			<path class="st29" d="M-19.5-67.3c0-0.1-0.1-0.3-0.2-0.4c-0.2-0.3-0.7-0.3-1-0.1c-0.1,0.1-12.9,11.6-7,24
				c0.2,0.4,0.6,0.5,0.9,0.3c0.3-0.2,0.5-0.6,0.3-1c-5.4-11.5,6.5-22.2,6.6-22.3C-19.6-66.8-19.5-67.1-19.5-67.3z"/>
		</g>
	</g>
	<g>
		<path class="st28" d="M-58.6-56.7c-1.4-2-3.6-3.4-6-3.9c-2.4-0.5-4.8-0.3-7.2,0.3c1.9,2.7,3.9,5.5,6.5,7.4
			c1.1,0.8,2.3,1.4,3.5,1.9c0.9,0.4,2.6,1.1,3.6,0.8C-55.8-50.6-57.8-55.5-58.6-56.7z"/>
		<g>
			<path class="st29" d="M-67.3-58.2c0-0.1,0-0.2,0-0.3c0.1-0.3,0.3-0.4,0.6-0.3c0.1,0,11.5,3.7,11.2,13.5c0,0.3-0.2,0.5-0.5,0.5
				c-0.3,0-0.5-0.2-0.5-0.5c0.3-9-10.4-12.4-10.5-12.5C-67.2-57.9-67.3-58-67.3-58.2z"/>
		</g>
	</g>
	<g>
		<path class="st29" d="M-57-49.8C-57-49.8-57.1-49.8-57-49.8c-0.6-0.1-0.9-0.5-0.8-1c0-0.2,0.5-4.7,2.9-9.9
			c2.2-4.9,6.6-11.4,14.9-14.6c0.4-0.2,0.9,0.1,1.1,0.5c0.2,0.4-0.1,1-0.5,1.1c-14.8,5.8-16.7,23-16.7,23.1
			C-56.2-50.1-56.6-49.8-57-49.8z"/>
	</g>
	<g>
		<path class="st29" d="M-30-52c-0.4,0-0.8-0.3-0.8-0.7C-34-72.9-48.4-80.9-48.6-81c-0.4-0.2-0.6-0.8-0.4-1.2
			c0.2-0.4,0.7-0.6,1.1-0.4c0.2,0.1,3.9,2.1,8.1,6.8c3.8,4.3,8.8,11.7,10.6,22.7c0.1,0.5-0.2,0.9-0.7,1C-29.9-52-29.9-52-30-52z"/>
	</g>
	<path class="st30" d="M-47.3-40.5c0,6.8-5.3,12.3-12,12.3c-1.4,0-2.7-0.2-4-0.7c-2.1-0.8-3.9-2.1-5.2-3.8c-1.7-2.1-2.7-4.9-2.7-7.8
		c0-6.8,5.4-12.3,12-12.3c0.8,0,1.6,0.1,2.4,0.2c0.6,0.1,1.2,0.3,1.8,0.5C-50.5-50.3-47.3-45.8-47.3-40.5z"/>
	<path class="st31" d="M-49-40.5c0,5.7-4.5,10.3-10,10.3c-3.1,0-5.9-1.5-7.7-3.8c3.4-0.1,6.8-1.9,8.8-4.8c1.3-1.9,2-4.2,2-6.5
		c0-1.1-0.1-2.3-0.4-3.4c-0.2-0.6-0.6-1.4-0.7-2.1C-52.4-49.7-49-45.5-49-40.5z"/>
	<path class="st32" d="M-64.3-49.8c0.9-0.6,2-1.2,3.2-1c1.5,0.2,2.7,1.7,2.9,3.3c0.2,1.6-0.4,3.2-1.2,4.5c-1.3,2.1-3.2,3.8-5.5,4.7
		c-0.9,0.4-1.9,0.6-2.8,0.3c-2.5-0.9-1.9-4.2-1.1-6.1C-68-46.4-66.4-48.4-64.3-49.8z"/>
	<path class="st31" d="M-47.3-40.5c0,6.8-5.3,12.3-12,12.3c-1.4,0-2.7-0.2-4-0.7c0.7,0,1.4-0.2,2-0.3c3.1-0.7,6-2.8,7.5-5.7
		c1.5-2.8,1.7-6.3,1.1-9.4c-0.3-1.5-0.8-3-1.4-4.4c-0.3-0.8-1.5-2.4-1.1-3.4C-50.5-50.3-47.3-45.8-47.3-40.5z"/>
	<path class="st30" d="M-18-40.5c0,6.8-5.3,12.3-12,12.3c-1.4,0-2.7-0.2-4-0.7c-2.1-0.8-3.9-2.1-5.2-3.8c-1.7-2.1-2.7-4.9-2.7-7.8
		c0-6.8,5.4-12.3,12-12.3c0.8,0,1.6,0.1,2.4,0.2c0.6,0.1,1.2,0.3,1.8,0.5C-21.2-50.3-18-45.8-18-40.5z"/>
	<path class="st31" d="M-19.7-40.5c0,5.7-4.5,10.3-10,10.3c-3.1,0-5.9-1.5-7.7-3.8c3.4-0.1,6.8-1.9,8.8-4.8c1.3-1.9,2-4.2,2-6.5
		c0-1.1-0.1-2.3-0.4-3.4c-0.2-0.6-0.6-1.4-0.7-2.1C-23.2-49.7-19.7-45.5-19.7-40.5z"/>
	<path class="st32" d="M-35.1-49.8c0.9-0.6,2-1.2,3.2-1c1.5,0.2,2.7,1.7,2.9,3.3c0.2,1.6-0.4,3.2-1.2,4.5c-1.3,2.1-3.2,3.8-5.5,4.7
		c-0.9,0.4-1.9,0.6-2.8,0.3c-2.5-0.9-1.9-4.2-1.1-6.1C-38.7-46.4-37.1-48.4-35.1-49.8z"/>
	<path class="st31" d="M-18-40.5c0,6.8-5.3,12.3-12,12.3c-1.4,0-2.7-0.2-4-0.7c0.7,0,1.4-0.2,2-0.3c3.1-0.7,6-2.8,7.5-5.7
		c1.5-2.8,1.7-6.3,1.1-9.4c-0.3-1.5-0.8-3-1.4-4.4c-0.3-0.8-1.5-2.4-1.1-3.4C-21.2-50.3-18-45.8-18-40.5z"/>
</g>
<g>
	<path class="st22" d="M-312.7-136.7h-65.2c-3.8,0-6.8,3.1-6.8,7v67.2c0,3.9,3,7,6.8,7h65.2c3.8,0,6.8-3.1,6.8-7v-67.2
		C-305.9-133.6-308.9-136.7-312.7-136.7z"/>
	<path class="st23" d="M-314-132.7h-62.6c-2.3,0-4.2,1.9-4.2,4.3v64.6c0,2.4,1.9,4.3,4.2,4.3h62.6c2.3,0,4.2-1.9,4.2-4.3v-64.6
		C-309.8-130.8-311.7-132.7-314-132.7z"/>
	<path class="st24" d="M-325.7-105.9c-1.6-0.5-3.3-0.8-5-0.8c-2.2,0-4.3,0.5-6.2,1.3c-2.8-2.1-6.1-3.5-9.7-3.8
		c-0.4,0-0.9-0.1-1.3-0.1c-0.1-3.4-1.5-10.5-3.7-11c-1.7-0.4-3,0.5-3.7,1.2c-0.4,0.4-0.3,1,0.1,1.4c0.5,0.4,1.1,1.1,1.8,1.9
		c-1.1,0-2.1,0.1-3.1,0.4c-1.6-0.7-4.6-0.3-5.6,0.1c-2.4,0.9-4.3,2.8-5.5,5.1c-1.2,2.3-1.7,4.9-1.8,7.5c3.2-1.2,6.4-2.4,9.1-4.6
		c1.1-0.9,2.1-1.9,2.9-3.1c0.6-0.9,1.8-2.4,1.8-3.5c0-0.2,0-0.4-0.1-0.6c0.9-0.2,1.9-0.3,2.9-0.2c0.8,1.4,1.5,3.3,1.7,5.6
		c-9.4,1.3-16.7,9.7-16.7,19.7c0,7.1,3.6,11.9,9,14.4c3,1.4,6.5,2.1,10.3,2.1c4.1,0,7.9-0.8,11.1-2.5c2,1,4.3,1.5,6.7,1.5
		c8.8,0,15.9-7.4,15.9-16.4C-314.8-97.5-319.4-103.7-325.7-105.9z"/>
	<g>
		<path class="st33" d="M-333.2-90c0,11-8.7,16.5-19.3,16.5c-3.8,0-7.3-0.7-10.3-2.1c-5.4-2.5-9-7.3-9-14.4c0-11,8.7-19.9,19.3-19.9
			c0.6,0,1.2,0,1.8,0.1C-340.9-109-333.2-100.4-333.2-90z"/>
		<path class="st34" d="M-334.8-90.2c0,9.8-7.7,14.7-17.3,14.7c-3.4,0-6.5-0.6-9.2-1.9c2.7-0.2,5.3-0.8,7.8-1.8
			c4.1-1.6,8-4.5,9.7-8.6c1.7-4.2,1-9.2-1.1-13.2c-1.1-2.1-2.6-4.1-4.2-5.8c-0.3-0.3-0.8-0.7-1.3-1.2
			C-341.7-107.1-334.8-99.5-334.8-90.2z"/>
		<path class="st35" d="M-360-105c1.3-0.7,2.8-1.3,4.3-1c2,0.5,3.4,2.6,3.4,4.7c0.1,2.1-0.8,4.2-2.1,5.9c-1.9,2.7-4.7,4.7-7.8,5.7
			c-1.2,0.4-2.6,0.6-3.7,0.1c-3.3-1.5-2.1-5.8-0.9-8.2C-365.2-100.8-362.9-103.4-360-105z"/>
		<path class="st29" d="M-355.1-108.3c0,0,2.1,1.2,2.9,0c0.8-1.2-0.8-12-3.5-12.7c-1.7-0.4-3,0.5-3.7,1.2c-0.4,0.4-0.3,1,0.1,1.4
			C-358-117.2-355.1-114-355.1-108.3z"/>
		<path class="st28" d="M-366.2-116c-2.4,0.9-4.3,2.8-5.5,5.1c-1.2,2.3-1.7,4.9-1.8,7.5c3.2-1.2,6.4-2.4,9.1-4.6
			c1.1-0.9,2.1-1.9,2.9-3.1c0.6-0.9,1.8-2.4,1.8-3.5C-359.5-117.2-364.9-116.5-366.2-116z"/>
		<g>
			<path class="st29" d="M-370.2-107.4c-0.1,0-0.2,0-0.3-0.1c-0.2-0.2-0.3-0.5-0.2-0.7c0.1-0.1,6.9-10.9,16.3-7.7
				c0.3,0.1,0.4,0.4,0.3,0.7c-0.1,0.3-0.4,0.4-0.6,0.3c-8.7-2.9-15.1,7.1-15.1,7.2C-369.9-107.5-370-107.4-370.2-107.4z"/>
		</g>
		<g>
			<path class="st25" d="M-318.9-90.9c0,9.1-7.1,16.4-15.9,16.4c-5,0-9.5-2.4-12.4-6.2c-2.2-2.8-3.5-6.4-3.5-10.3
				c0-9.1,7.1-16.4,15.9-16.4c1.7,0,3.4,0.3,5,0.8C-323.4-104.4-318.9-98.2-318.9-90.9z"/>
			<path class="st33" d="M-334.8-92.5c0,0-4.4-8.3-3-11.6C-336.6-106.9-326.3-107.5-334.8-92.5z"/>
			<path class="st33" d="M-335.9-92c0,0-8.8-2.7-10-6C-347-100.8-340.1-108.8-335.9-92z"/>
			<path class="st33" d="M-336.3-90.9c0,0-8,4.5-11.2,3.1C-350.2-89-350.8-99.7-336.3-90.9z"/>
			<path class="st33" d="M-335.8-89.8c0,0-2.6,9-5.9,10.4C-344.4-78.3-352.1-85.4-335.8-89.8z"/>
			<path class="st33" d="M-334.7-89.4c0,0,4.4,8.3,3,11.6C-332.9-75-343.2-74.4-334.7-89.4z"/>
			<path class="st33" d="M-333.7-89.9c0,0,8.8,2.7,10,6C-322.6-81-329.4-73.1-333.7-89.9z"/>
			<path class="st33" d="M-333.3-91c0,0,8-4.5,11.2-3.1C-319.3-92.8-318.8-82.2-333.3-91z"/>
			<path class="st33" d="M-333.7-92.1c0,0,2.6-9,5.9-10.4C-325.2-103.5-317.5-96.4-333.7-92.1z"/>
			<path class="st26" d="M-320-90.9c0,8.4-6.6,15.2-14.7,15.2c-4.6,0-8.8-2.2-11.5-5.7c3.7,1.6,8,1.6,11.7-0.1
				c4.3-2,7.6-6.4,8.3-11.3c0.2-1.7,0.2-3.4-0.1-5c-0.6-3-2-5.2-3.7-7.5C-324.2-103.3-320-97.6-320-90.9z"/>
			<path class="st35" d="M-341.3-102.3c0.9-0.5,2-0.9,3-0.7c1.4,0.3,2.3,1.8,2.4,3.3c0.1,1.5-0.6,2.9-1.5,4.1
				c-1.4,1.9-3.3,3.3-5.4,4c-0.9,0.3-1.8,0.5-2.6,0.1c-2.3-1.1-1.5-4.1-0.6-5.8C-345-99.3-343.3-101.1-341.3-102.3z"/>
		</g>
	</g>
</g>
<path class="st22" d="M-277.2,170.8h-65.2c-3.8,0-6.8,3.1-6.8,7v67.2c0,3.9,3,7,6.8,7h65.2c3.8,0,6.8-3.1,6.8-7v-67.2
	C-270.4,174-273.5,170.8-277.2,170.8z"/>
<path class="st23" d="M-227.4,128.7H-290c-2.3,0-4.2,1.9-4.2,4.3v64.6c0,2.4,1.9,4.3,4.2,4.3h62.6c2.3,0,4.2-1.9,4.2-4.3V133
	C-223.2,130.7-225.1,128.7-227.4,128.7z"/>
<path class="st24" d="M-197.1,88.9c-1.6-0.5-3.3-0.8-5-0.8c-2.2,0-4.3,0.5-6.2,1.3c-2.8-2.1-6.1-3.5-9.7-3.8c-0.4,0-0.9-0.1-1.3-0.1
	c-0.1-3.4-1.5-10.5-3.7-11c-1.7-0.4-3,0.5-3.7,1.2c-0.4,0.4-0.3,1,0.1,1.4c0.5,0.4,1.1,1.1,1.8,1.9c-1.1,0-2.1,0.1-3.1,0.4
	c-1.6-0.7-4.6-0.3-5.6,0.1c-2.4,0.9-4.3,2.8-5.5,5.1c-1.2,2.3-1.7,4.9-1.8,7.5c3.2-1.2,6.4-2.4,9.1-4.6c1.1-0.9,2.1-1.9,2.9-3.1
	c0.6-0.9,1.8-2.4,1.8-3.5c0-0.2,0-0.4-0.1-0.6c0.9-0.2,1.9-0.3,2.9-0.2c0.8,1.4,1.5,3.3,1.7,5.6c-9.4,1.3-16.7,9.7-16.7,19.7
	c0,7.1,3.6,11.9,9,14.4c3,1.4,6.5,2.1,10.3,2.1c4.1,0,7.9-0.8,11.1-2.5c2,1,4.3,1.5,6.7,1.5c8.8,0,15.9-7.4,15.9-16.4
	C-186.2,97.3-190.8,91.1-197.1,88.9z"/>
<g>
	<path class="st33" d="M-204.5,104.8c0,11-8.7,16.5-19.3,16.5c-3.8,0-7.3-0.7-10.3-2.1c-5.4-2.5-9-7.3-9-14.4
		c0-11,8.7-19.9,19.3-19.9c0.6,0,1.2,0,1.8,0.1C-212.2,85.8-204.5,94.4-204.5,104.8z"/>
	<path class="st34" d="M-206.1,104.6c0,9.8-7.7,14.7-17.3,14.7c-3.4,0-6.5-0.6-9.2-1.9c2.7-0.2,5.3-0.8,7.8-1.8
		c4.1-1.6,8-4.5,9.7-8.6c1.7-4.2,1-9.2-1.1-13.2c-1.1-2.1-2.6-4.1-4.2-5.8c-0.3-0.3-0.8-0.7-1.3-1.2
		C-213,87.7-206.1,95.3-206.1,104.6z"/>
	<path class="st35" d="M-231.3,89.8c1.3-0.7,2.8-1.3,4.3-1c2,0.5,3.4,2.6,3.4,4.7c0.1,2.1-0.8,4.2-2.1,5.9c-1.9,2.7-4.7,4.7-7.8,5.7
		c-1.2,0.4-2.6,0.6-3.7,0.1c-3.3-1.5-2.1-5.8-0.9-8.2C-236.6,94-234.2,91.4-231.3,89.8z"/>
	<path class="st29" d="M-226.4,86.5c0,0,2.1,1.2,2.9,0c0.8-1.2-0.8-12-3.5-12.7c-1.7-0.4-3,0.5-3.7,1.2c-0.4,0.4-0.3,1,0.1,1.4
		C-229.3,77.6-226.4,80.8-226.4,86.5z"/>
	<path class="st28" d="M-237.6,78.8c-2.4,0.9-4.3,2.8-5.5,5.1c-1.2,2.3-1.7,4.9-1.8,7.5c3.2-1.2,6.4-2.4,9.1-4.6
		c1.1-0.9,2.1-1.9,2.9-3.1c0.6-0.9,1.8-2.4,1.8-3.5C-230.9,77.6-236.2,78.3-237.6,78.8z"/>
	<g>
		<path class="st29" d="M-241.5,87.4c-0.1,0-0.2,0-0.3-0.1c-0.2-0.2-0.3-0.5-0.2-0.7c0.1-0.1,6.9-10.9,16.3-7.7
			c0.3,0.1,0.4,0.4,0.3,0.7c-0.1,0.3-0.4,0.4-0.6,0.3c-8.7-2.9-15.1,7.1-15.1,7.2C-241.2,87.3-241.4,87.4-241.5,87.4z"/>
	</g>
	<g>
		<path class="st25" d="M-190.2,103.9c0,9.1-7.1,16.4-15.9,16.4c-5,0-9.5-2.4-12.4-6.2c-2.2-2.8-3.5-6.4-3.5-10.3
			c0-9.1,7.1-16.4,15.9-16.4c1.7,0,3.4,0.3,5,0.8C-194.8,90.4-190.2,96.6-190.2,103.9z"/>
		<path class="st33" d="M-206.2,102.3c0,0-4.4-8.3-3-11.6C-208,87.9-197.7,87.3-206.2,102.3z"/>
		<path class="st33" d="M-207.2,102.8c0,0-8.8-2.7-10-6C-218.4,94-211.5,86-207.2,102.8z"/>
		<path class="st33" d="M-207.6,103.9c0,0-8,4.5-11.2,3.1C-221.6,105.8-222.2,95.1-207.6,103.9z"/>
		<path class="st33" d="M-207.2,105c0,0-2.6,9-5.9,10.4C-215.7,116.5-223.4,109.4-207.2,105z"/>
		<path class="st33" d="M-206.1,105.4c0,0,4.4,8.3,3,11.6C-204.3,119.8-214.6,120.4-206.1,105.4z"/>
		<path class="st33" d="M-205,104.9c0,0,8.8,2.7,10,6C-193.9,113.8-200.8,121.7-205,104.9z"/>
		<path class="st33" d="M-204.6,103.8c0,0,8-4.5,11.2-3.1C-190.7,102-190.1,112.6-204.6,103.8z"/>
		<path class="st33" d="M-205.1,102.7c0,0,2.6-9,5.9-10.4C-196.5,91.3-188.8,98.4-205.1,102.7z"/>
		<path class="st26" d="M-191.3,103.9c0,8.4-6.6,15.2-14.7,15.2c-4.6,0-8.8-2.2-11.5-5.7c3.7,1.6,8,1.6,11.7-0.1
			c4.3-2,7.6-6.4,8.3-11.3c0.2-1.7,0.2-3.4-0.1-5c-0.6-3-2-5.2-3.7-7.5C-195.5,91.5-191.3,97.2-191.3,103.9z"/>
		<path class="st35" d="M-212.7,92.5c0.9-0.5,2-0.9,3-0.7c1.4,0.3,2.3,1.8,2.4,3.3c0.1,1.5-0.6,2.9-1.5,4.1c-1.4,1.9-3.3,3.3-5.4,4
			c-0.9,0.3-1.8,0.5-2.6,0.1c-2.3-1.1-1.5-4.1-0.6-5.8C-216.3,95.5-214.7,93.7-212.7,92.5z"/>
	</g>
</g>
<g>
	<path class="st22" d="M-524.4-38.8h-65.2c-3.8,0-6.8,3.1-6.8,7v67.2c0,3.9,3,7,6.8,7h65.2c3.8,0,6.8-3.1,6.8-7v-67.2
		C-517.6-35.7-520.7-38.8-524.4-38.8z"/>
	<path class="st23" d="M-525.7-34.8h-62.6c-2.3,0-4.2,1.9-4.2,4.3v64.6c0,2.4,1.9,4.3,4.2,4.3h62.6c2.3,0,4.2-1.9,4.2-4.3v-64.6
		C-521.5-32.8-523.4-34.8-525.7-34.8z"/>
	<path class="st24" d="M-537.5-8c-1.6-0.5-3.3-0.8-5-0.8c-2.2,0-4.3,0.5-6.2,1.3c-2.8-2.1-6.1-3.5-9.7-3.8c-0.4,0-0.9-0.1-1.3-0.1
		c-0.1-3.4-1.5-10.5-3.7-11c-1.7-0.4-3,0.5-3.7,1.2c-0.4,0.4-0.3,1,0.1,1.4c0.5,0.4,1.1,1.1,1.8,1.9c-1.1,0-2.1,0.1-3.1,0.4
		c-1.6-0.7-4.6-0.3-5.6,0.1c-2.4,0.9-4.3,2.8-5.5,5.1c-1.2,2.3-1.7,4.9-1.8,7.5c3.2-1.2,6.4-2.4,9.1-4.6c1.1-0.9,2.1-1.9,2.9-3.1
		c0.6-0.9,1.8-2.4,1.8-3.5c0-0.2,0-0.4-0.1-0.6c0.9-0.2,1.9-0.3,2.9-0.2c0.8,1.4,1.5,3.3,1.7,5.6c-9.4,1.3-16.7,9.7-16.7,19.7
		c0,7.1,3.6,11.9,9,14.4c3,1.4,6.5,2.1,10.3,2.1c4.1,0,7.9-0.8,11.1-2.5c2,1,4.3,1.5,6.7,1.5c8.8,0,15.9-7.4,15.9-16.4
		C-526.6,0.4-531.1-5.8-537.5-8z"/>
	<g>
		<path class="st33" d="M-544.9,7.9c0,11-8.7,16.5-19.3,16.5c-3.8,0-7.3-0.7-10.3-2.1c-5.4-2.5-9-7.3-9-14.4
			c0-11,8.7-19.9,19.3-19.9c0.6,0,1.2,0,1.8,0.1C-552.6-11-544.9-2.5-544.9,7.9z"/>
		<path class="st34" d="M-546.5,7.7c0,9.8-7.7,14.7-17.3,14.7c-3.4,0-6.5-0.6-9.2-1.9c2.7-0.2,5.3-0.8,7.8-1.8
			c4.1-1.6,8-4.5,9.7-8.6c1.7-4.2,1-9.2-1.1-13.2c-1.1-2.1-2.6-4.1-4.2-5.8c-0.3-0.3-0.8-0.7-1.3-1.2
			C-553.4-9.2-546.5-1.6-546.5,7.7z"/>
		<path class="st35" d="M-571.7-7.1c1.3-0.7,2.8-1.3,4.3-1c2,0.5,3.4,2.6,3.4,4.7c0.1,2.1-0.8,4.2-2.1,5.9c-1.9,2.7-4.7,4.7-7.8,5.7
			c-1.2,0.4-2.6,0.6-3.7,0.1c-3.3-1.5-2.1-5.8-0.9-8.2C-577-2.9-574.6-5.5-571.7-7.1z"/>
		<path class="st29" d="M-566.8-10.4c0,0,2.1,1.2,2.9,0c0.8-1.2-0.8-12-3.5-12.7c-1.7-0.4-3,0.5-3.7,1.2c-0.4,0.4-0.3,1,0.1,1.4
			C-569.7-19.3-566.8-16.1-566.8-10.4z"/>
		<path class="st28" d="M-578-18.1c-2.4,0.9-4.3,2.8-5.5,5.1s-1.7,4.9-1.8,7.5c3.2-1.2,6.4-2.4,9.1-4.6c1.1-0.9,2.1-1.9,2.9-3.1
			c0.6-0.9,1.8-2.4,1.8-3.5C-571.3-19.2-576.6-18.6-578-18.1z"/>
		<g>
			<path class="st29" d="M-581.9-9.5c-0.1,0-0.2,0-0.3-0.1c-0.2-0.2-0.3-0.5-0.2-0.7c0.1-0.1,6.9-10.9,16.3-7.7
				c0.3,0.1,0.4,0.4,0.3,0.7c-0.1,0.3-0.4,0.4-0.6,0.3c-8.7-2.9-15.1,7.1-15.1,7.2C-581.6-9.6-581.8-9.5-581.9-9.5z"/>
		</g>
		<g>
			<path class="st25" d="M-530.6,7c0,9.1-7.1,16.4-15.9,16.4c-5,0-9.5-2.4-12.4-6.2c-2.2-2.8-3.5-6.4-3.5-10.3
				c0-9.1,7.1-16.4,15.9-16.4c1.7,0,3.4,0.3,5,0.8C-535.2-6.4-530.6-0.3-530.6,7z"/>
			<path class="st33" d="M-546.6,5.4c0,0-4.4-8.3-3-11.6C-548.4-8.9-538.1-9.5-546.6,5.4z"/>
			<path class="st33" d="M-547.6,5.9c0,0-8.8-2.7-10-6C-558.7-2.9-551.9-10.9-547.6,5.9z"/>
			<path class="st33" d="M-548,7c0,0-8,4.5-11.2,3.1C-562,8.9-562.5-1.7-548,7z"/>
			<path class="st33" d="M-547.6,8.1c0,0-2.6,9-5.9,10.4C-556.1,19.6-563.8,12.5-547.6,8.1z"/>
			<path class="st33" d="M-546.5,8.6c0,0,4.4,8.3,3,11.6C-544.7,22.9-555,23.5-546.5,8.6z"/>
			<path class="st33" d="M-545.4,8.1c0,0,8.8,2.7,10,6C-534.3,16.9-541.2,24.9-545.4,8.1z"/>
			<path class="st33" d="M-545,6.9c0,0,8-4.5,11.2-3.1C-531.1,5.1-530.5,15.7-545,6.9z"/>
			<path class="st33" d="M-545.5,5.9c0,0,2.6-9,5.9-10.4C-536.9-5.6-529.2,1.5-545.5,5.9z"/>
			<path class="st26" d="M-531.7,7c0,8.4-6.6,15.2-14.7,15.2c-4.6,0-8.8-2.2-11.5-5.7c3.7,1.6,8,1.6,11.7-0.1
				c4.3-2,7.6-6.4,8.3-11.3c0.2-1.7,0.2-3.4-0.1-5c-0.6-3-2-5.2-3.7-7.5C-535.9-5.4-531.7,0.3-531.7,7z"/>
			<path class="st35" d="M-553.1-4.3c0.9-0.5,2-0.9,3-0.7c1.4,0.3,2.3,1.8,2.4,3.3c0.1,1.5-0.6,2.9-1.5,4.1c-1.4,1.9-3.3,3.3-5.4,4
				c-0.9,0.3-1.8,0.5-2.6,0.1c-2.3-1.1-1.5-4.1-0.6-5.8C-556.7-1.4-555.1-3.2-553.1-4.3z"/>
		</g>
	</g>
</g>
<g>
	<path class="st22" d="M-418.6,59.1h-65.2c-3.8,0-6.8,3.1-6.8,7v67.2c0,3.9,3,7,6.8,7h65.2c3.8,0,6.8-3.1,6.8-7V66.1
		C-411.8,62.3-414.8,59.1-418.6,59.1z"/>
	<path class="st23" d="M-419.8,63.2h-62.6c-2.3,0-4.2,1.9-4.2,4.3v64.6c0,2.4,1.9,4.3,4.2,4.3h62.6c2.3,0,4.2-1.9,4.2-4.3V67.5
		C-415.7,65.1-417.5,63.2-419.8,63.2z"/>
	<path class="st24" d="M-431.6,90c-1.6-0.5-3.3-0.8-5-0.8c-2.2,0-4.3,0.5-6.2,1.3c-2.8-2.1-6.1-3.5-9.7-3.8c-0.4,0-0.9-0.1-1.3-0.1
		c-0.1-3.4-1.5-10.5-3.7-11c-1.7-0.4-3,0.5-3.7,1.2c-0.4,0.4-0.3,1,0.1,1.4c0.5,0.4,1.1,1.1,1.8,1.9c-1.1,0-2.1,0.1-3.1,0.4
		c-1.6-0.7-4.6-0.3-5.6,0.1c-2.4,0.9-4.3,2.8-5.5,5.1c-1.2,2.3-1.7,4.9-1.8,7.5c3.2-1.2,6.4-2.4,9.1-4.6c1.1-0.9,2.1-1.9,2.9-3.1
		c0.6-0.9,1.8-2.4,1.8-3.5c0-0.2,0-0.4-0.1-0.6c0.9-0.2,1.9-0.3,2.9-0.2c0.8,1.4,1.5,3.3,1.7,5.6c-9.4,1.3-16.7,9.7-16.7,19.7
		c0,7.1,3.6,11.9,9,14.4c3,1.4,6.5,2.1,10.3,2.1c4.1,0,7.9-0.8,11.1-2.5c2,1,4.3,1.5,6.7,1.5c8.8,0,15.9-7.4,15.9-16.4
		C-420.7,98.3-425.3,92.1-431.6,90z"/>
	<g>
		<path class="st33" d="M-439.1,105.8c0,11-8.7,16.5-19.3,16.5c-3.8,0-7.3-0.7-10.3-2.1c-5.4-2.5-9-7.3-9-14.4
			c0-11,8.7-19.9,19.3-19.9c0.6,0,1.2,0,1.8,0.1C-446.8,86.9-439.1,95.4-439.1,105.8z"/>
		<path class="st34" d="M-440.6,105.6c0,9.8-7.7,14.7-17.3,14.7c-3.4,0-6.5-0.6-9.2-1.9c2.7-0.2,5.3-0.8,7.8-1.8
			c4.1-1.6,8-4.5,9.7-8.6c1.7-4.2,1-9.2-1.1-13.2c-1.1-2.1-2.6-4.1-4.2-5.8c-0.3-0.3-0.8-0.7-1.3-1.2
			C-447.5,88.7-440.6,96.3-440.6,105.6z"/>
		<path class="st35" d="M-465.9,90.8c1.3-0.7,2.8-1.3,4.3-1c2,0.5,3.4,2.6,3.4,4.7s-0.8,4.2-2.1,5.9c-1.9,2.7-4.7,4.7-7.8,5.7
			c-1.2,0.4-2.6,0.6-3.7,0.1c-3.3-1.5-2.1-5.8-0.9-8.2C-471.1,95-468.7,92.5-465.9,90.8z"/>
		<path class="st29" d="M-461,87.5c0,0,2.1,1.2,2.9,0c0.8-1.2-0.8-12-3.5-12.7c-1.7-0.4-3,0.5-3.7,1.2c-0.4,0.4-0.3,1,0.1,1.4
			C-463.9,78.6-461,81.8-461,87.5z"/>
		<path class="st28" d="M-472.1,79.8c-2.4,0.9-4.3,2.8-5.5,5.1c-1.2,2.3-1.7,4.9-1.8,7.5c3.2-1.2,6.4-2.4,9.1-4.6
			c1.1-0.9,2.1-1.9,2.9-3.1c0.6-0.9,1.8-2.4,1.8-3.5C-465.4,78.7-470.7,79.3-472.1,79.8z"/>
		<g>
			<path class="st29" d="M-476.1,88.4c-0.1,0-0.2,0-0.3-0.1c-0.2-0.2-0.3-0.5-0.2-0.7c0.1-0.1,6.9-10.9,16.3-7.7
				c0.3,0.1,0.4,0.4,0.3,0.7c-0.1,0.3-0.4,0.4-0.6,0.3c-8.7-2.9-15.1,7.1-15.1,7.2C-475.7,88.3-475.9,88.4-476.1,88.4z"/>
		</g>
		<g>
			<path class="st25" d="M-424.7,104.9c0,9.1-7.1,16.4-15.9,16.4c-5,0-9.5-2.4-12.4-6.2c-2.2-2.8-3.5-6.4-3.5-10.3
				c0-9.1,7.1-16.4,15.9-16.4c1.7,0,3.4,0.3,5,0.8C-429.3,91.5-424.7,97.7-424.7,104.9z"/>
			<path class="st33" d="M-440.7,103.4c0,0-4.4-8.3-3-11.6C-442.5,89-432.2,88.4-440.7,103.4z"/>
			<path class="st33" d="M-441.8,103.9c0,0-8.8-2.7-10-6C-452.9,95-446,87.1-441.8,103.9z"/>
			<path class="st33" d="M-442.2,105c0,0-8,4.5-11.2,3.1C-456.1,106.8-456.7,96.2-442.2,105z"/>
			<path class="st33" d="M-441.7,106.1c0,0-2.6,9-5.9,10.4C-450.3,117.5-458,110.4-441.7,106.1z"/>
			<path class="st33" d="M-440.6,106.5c0,0,4.4,8.3,3,11.6C-438.8,120.8-449.1,121.5-440.6,106.5z"/>
			<path class="st33" d="M-439.5,106c0,0,8.8,2.7,10,6C-428.4,114.8-435.3,122.8-439.5,106z"/>
			<path class="st33" d="M-439.1,104.9c0,0,8-4.5,11.2-3.1C-425.2,103-424.6,113.7-439.1,104.9z"/>
			<path class="st33" d="M-439.6,103.8c0,0,2.6-9,5.9-10.4C-431,92.3-423.3,99.4-439.6,103.8z"/>
			<path class="st26" d="M-425.8,105c0,8.4-6.6,15.2-14.7,15.2c-4.6,0-8.8-2.2-11.5-5.7c3.7,1.6,8,1.6,11.7-0.1
				c4.3-2,7.6-6.4,8.3-11.3c0.2-1.7,0.2-3.4-0.1-5c-0.6-3-2-5.2-3.7-7.5C-430,92.6-425.8,98.2-425.8,105z"/>
			<path class="st35" d="M-447.2,93.6c0.9-0.5,2-0.9,3-0.7c1.4,0.3,2.3,1.8,2.4,3.3c0.1,1.5-0.6,2.9-1.5,4.1c-1.4,1.9-3.3,3.3-5.4,4
				c-0.9,0.3-1.8,0.5-2.6,0.1c-2.3-1.1-1.5-4.1-0.6-5.8C-450.8,96.5-449.2,94.7-447.2,93.6z"/>
		</g>
	</g>
</g>
<path class="st22" d="M-258.7-125.3h-65.2c-3.8,0-6.8,3.1-6.8,7V-51c0,3.9,3,7,6.8,7h65.2c3.8,0,6.8-3.1,6.8-7v-67.2
	C-251.9-122.2-254.9-125.3-258.7-125.3z"/>
<path class="st23" d="M-101-121.3h-62.6c-2.3,0-4.2,1.9-4.2,4.3v64.6c0,2.4,1.9,4.3,4.2,4.3h62.6c2.3,0,4.2-1.9,4.2-4.3V-117
	C-96.8-119.3-98.7-121.3-101-121.3z"/>
<path class="st24" d="M79.3-45.8c-0.6-4-4.7-7-4.7-7l-4,2.6l-5.1,3.4c0.2-2.8-0.4-5.4-2.1-7.5c-1.4-1.7-2.9-3-4.5-3.8
	c-3.4-1.8-7.1-1.8-11.2-0.2c-0.1-1.8-0.4-4.2-1-6.5c0.4-1.6,1.1-3,1.9-4.3c0.2,0.2,0.4,0.3,0.6,0.4c1.4,0.5,3.8-0.2,5.1-0.5
	c1.8-0.4,3.6-1.1,5.2-2.1c4-2.2,7.1-5.7,10.2-9.2c-3.1-1.3-6.5-2-9.9-1.6c-3.4,0.3-6.7,1.8-8.9,4.4c-0.9,1.1-3,4.7-3,7
	c-0.8,1-1.4,2.2-1.9,3.4c-0.9-2.7-2-5-3.4-5.3c-1-0.3-1.9-0.2-2.6,0.1c-1,0.3-1.8,1-2.3,1.5c-0.5,0.5-0.4,1.4,0.1,1.8
	c1.6,1.4,4.7,4.8,5.5,10.6c-1.8-1.2-4.8-2.4-8.4-0.9c-5.9,2.4-7.3,6.5-7.7,11.1c-0.3,2.9,0.9,9.7,3.6,14.6c0.3,0.5,0.6,1,0.9,1.5
	c1.4,2.1,3.1,3.7,5.2,4.1c6.2,1.3,5.5-2.2,9.1-0.8c2.1,0.8,4.4,1.6,6.9,1.2c5.4,3.3,13.7,2.5,19.4-1.1c0.3-0.2,0.6-0.4,0.9-0.6
	C81-34.6,79.8-42,79.3-45.8z"/>
<g>
	<g>
		<path class="st29" d="M50.3-76.8c2.3-2.6,5.6-4,8.9-4.4c3.4-0.3,6.7,0.4,9.9,1.6c-3.1,3.4-6.2,6.9-10.2,9.2
			c-1.6,0.9-3.4,1.6-5.2,2.1c-1.4,0.3-3.7,1-5.1,0.5C45.5-68.9,49-75.3,50.3-76.8z"/>
		<g>
			<path class="st36" d="M62.7-77.4c0-0.1,0.1-0.3,0-0.4c-0.1-0.4-0.4-0.6-0.8-0.6c-0.2,0-16.6,3.1-17.6,16.8c0,0.4,0.2,0.7,0.6,0.8
				c0.4,0,0.7-0.3,0.7-0.6C46.7-74,62-76.9,62.2-77C62.4-77,62.6-77.2,62.7-77.4z"/>
		</g>
		<path class="st29" d="M64.3-42.9c-1,4.5-3.5,9-6,12.1c-4.7,5.9-9.3,4.3-12.9,2.9c-3.6-1.4-2.9,2.1-9.1,0.8c-2.1-0.4-3.8-2-5.2-4.1
			c-0.3-0.5-0.6-1-0.9-1.5c-2.7-4.9-3.9-11.7-3.6-14.6c0.5-4.6,1.8-8.7,7.7-11.1c5.9-2.4,10.1,2.3,10.1,2.3c5-2.8,9.6-3.3,13.7-1.1
			c1.6,0.9,3.1,2.1,4.5,3.8C65-50.6,65.2-46.8,64.3-42.9z"/>
		<path class="st37" d="M64.3-42.9c-1,4.5-3.5,9-6,12.1c-4.7,5.9-9.3,4.3-12.9,2.9c-3.6-1.4-2.9,2.1-9.1,0.8c-2.1-0.4-3.8-2-5.2-4.1
			c0.7,0.3,1.4,0.4,2.1,0.4c1.8,0.1,3.6-0.5,5.3-1.1c1.7-0.6,3.5-1.1,5.3-0.9c1.6,0.1,3.1,0.8,4.7,1c2.3,0.2,4.6-0.6,6.7-1.8
			C59-35.8,62.2-39.1,64.3-42.9z"/>
		<path class="st38" d="M32.6-51.7c1-1.2,2.3-2.2,3.8-2.5s3.2,0.3,4.1,1.7c0.7,1.1,0.7,2.4,0.4,3.6c-0.3,1.2-1,2.3-1.6,3.4
			c-0.9,1.5-1.8,2.9-3.2,3.9c-1.4,0.9-3.4,1.2-4.6,0c-1.5-1.3-1.4-3.6-1.2-5.4C30.3-48.6,31.5-50.4,32.6-51.7z"/>
		<path class="st36" d="M46.8-54.6c-0.5,0.8-1.4,0.8-2.2,0.6c-0.9-0.2-1.6-0.6-1.6-0.6c0-7.7-3.9-12-5.7-13.6
			c-0.5-0.5-0.6-1.3-0.1-1.8c0.5-0.6,1.3-1.2,2.3-1.5c0.8-0.3,1.6-0.3,2.6-0.1C45.7-70.7,47.9-56.3,46.8-54.6z"/>
		<path class="st39" d="M46.8-54.6c-0.5,0.8-1.4,0.8-2.2,0.6c0.8-3,0.9-6.2,0.1-9.2c-0.3-1.3-0.8-2.5-1.4-3.7c-0.5-1-1.2-2-1.9-2.9
			c-0.5-0.6-1.3-1.2-1.8-1.8c0.8-0.3,1.6-0.3,2.6-0.1C45.7-70.7,47.9-56.3,46.8-54.6z"/>
	</g>
	<g>
		<path class="st29" d="M72.7-28.4c-0.3,0.2-0.6,0.4-0.9,0.6c-8.5,5.2-22.5,4.5-24.6-6.5c0,0,14.8-8.1,22.4-13.7
			c2.1-1.6,3.7-2.9,4.2-3.9c0,0,4.1,3,4.7,7C79-41.1,80.2-33.7,72.7-28.4z"/>
		<path class="st37" d="M72.7-28.4c0.1-0.7,0.2-1.4,0.2-2.1c0.3-5-0.4-10.1-2-14.8c-0.3-0.9-0.8-1.8-1.2-2.7
			c2.1-1.6,3.7-2.9,4.2-3.9c0,0,4.1,3,4.7,7C79-41.1,80.2-33.7,72.7-28.4z"/>
		<path class="st40" d="M62.3-27.7c-5.4,1-9.2,0.3-11.6-1.3c-1.9-1.3-3-3.2-3.5-5.3l8.4-5.6l8.8-5.8l5.4-3.6l4-2.6
			c0,0,2.2,2.1,3,6.2C77.8-41,72-29.4,62.3-27.7z"/>
		<path class="st37" d="M62.3-27.7c-5.4,1-9.2,0.3-11.6-1.3c5.2,1.6,11.2,0.2,15.1-3.6c3.2-3,4.9-7.5,4.8-12c0-1.1-0.1-2.2-0.3-3.3
			c-0.1-0.4-0.3-0.9-0.5-1.4l4-2.6c0,0,2.2,2.1,3,6.2C77.8-41,72-29.4,62.3-27.7z"/>
		<path class="st25" d="M63.9-42.4c-0.6,0.9-1.4,1.8-2.2,2.4c-0.8,0.6-2.4,0.9-3.1,1c-1.5,0.4-2.1,0-2.9-1l2.8-1.9l1.6-1.1l1.8-1.2
			l2.5-1.7c0.1,0.1,0.2,0.2,0.2,0.4C65.1-44.4,64.5-43.3,63.9-42.4z"/>
		<g>
			<path class="st36" d="M61.1-41.5c-0.2,0.2-0.5,0.5-0.8,0.6c-0.3,0.1-0.7,0.1-1,0c-0.3-0.2-0.5-0.5-0.7-0.8c0,0,0,0-0.1-0.1
				l1.6-1.1l1.8-1.2c0,0,0.1,0,0.1,0.1c0,0,0,0,0.1,0.1C62.7-43.2,61.5-42,61.1-41.5z"/>
			<path class="st41" d="M62.1-43.9c-0.2,0.5-0.8,0.9-1.2,1c-0.2,0.1-0.5,0.1-0.8,0l1.8-1.2C62-44,62-44,62.1-43.9
				C62.1-43.9,62.1-43.9,62.1-43.9z"/>
		</g>
	</g>
</g>
<g>
	<path class="st22" d="M-416.8-34.8H-482c-3.8,0-6.8,3.1-6.8,7v67.2c0,3.9,3,7,6.8,7h65.2c3.8,0,6.8-3.1,6.8-7v-67.2
		C-410-31.7-413-34.8-416.8-34.8z"/>
	<path class="st23" d="M-418.1-30.8h-62.6c-2.3,0-4.2,1.9-4.2,4.3v64.6c0,2.4,1.9,4.3,4.2,4.3h62.6c2.3,0,4.2-1.9,4.2-4.3v-64.6
		C-413.9-28.9-415.8-30.8-418.1-30.8z"/>
	<path class="st24" d="M-420.7,10c-0.6-4-4.7-7-4.7-7l-4,2.6l-5.1,3.4c0.2-2.8-0.4-5.4-2.1-7.5c-1.4-1.7-2.9-3-4.5-3.8
		c-3.4-1.8-7.1-1.8-11.2-0.2c-0.1-1.8-0.4-4.2-1-6.5c0.4-1.6,1.1-3,1.9-4.3c0.2,0.2,0.4,0.3,0.6,0.4c1.4,0.5,3.8-0.2,5.1-0.5
		c1.8-0.4,3.6-1.1,5.2-2.1c4-2.2,7.1-5.7,10.2-9.2c-3.1-1.3-6.5-2-9.9-1.6c-3.4,0.3-6.7,1.8-8.9,4.4c-0.9,1.1-3,4.7-3,7
		c-0.8,1-1.4,2.2-1.9,3.4c-0.9-2.7-2-5-3.4-5.3c-1-0.3-1.9-0.2-2.6,0.1c-1,0.3-1.8,1-2.3,1.5c-0.5,0.5-0.4,1.4,0.1,1.8
		c1.6,1.4,4.7,4.8,5.5,10.6c-1.8-1.2-4.8-2.4-8.4-0.9c-5.9,2.4-7.3,6.5-7.7,11.1c-0.3,2.9,0.9,9.7,3.6,14.6c0.3,0.5,0.6,1,0.9,1.5
		c1.4,2.1,3.1,3.7,5.2,4.1c6.2,1.3,5.5-2.2,9.1-0.8c2.1,0.8,4.4,1.6,6.9,1.2c5.4,3.3,13.7,2.5,19.4-1.1c0.3-0.2,0.6-0.4,0.9-0.6
		C-419,21.3-420.2,13.8-420.7,10z"/>
	<g>
		<g>
			<path class="st29" d="M-451.8-21c2.3-2.6,5.6-4,8.9-4.4c3.4-0.3,6.7,0.4,9.9,1.6c-3.1,3.4-6.2,6.9-10.2,9.2
				c-1.6,0.9-3.4,1.6-5.2,2.1c-1.4,0.3-3.7,1-5.1,0.5C-456.6-13-453.1-19.5-451.8-21z"/>
			<g>
				<path class="st36" d="M-439.4-21.6c0-0.1,0.1-0.3,0-0.4c-0.1-0.4-0.4-0.6-0.8-0.6c-0.2,0-16.6,3.1-17.6,16.8
					c0,0.4,0.2,0.7,0.6,0.8c0.4,0,0.7-0.3,0.7-0.6c1-12.6,16.4-15.5,16.5-15.5C-439.7-21.2-439.5-21.3-439.4-21.6z"/>
			</g>
			<path class="st29" d="M-437.8,12.9c-1,4.5-3.5,9-6,12.1c-4.7,5.9-9.3,4.3-12.9,2.9c-3.6-1.4-2.9,2.1-9.1,0.8
				c-2.1-0.4-3.8-2-5.2-4.1c-0.3-0.5-0.6-1-0.9-1.5c-2.7-4.9-3.9-11.7-3.6-14.6c0.5-4.6,1.8-8.7,7.7-11.1c5.9-2.4,10.1,2.3,10.1,2.3
				c5-2.8,9.6-3.3,13.7-1.1c1.6,0.9,3.1,2.1,4.5,3.8C-437.1,5.2-436.9,9-437.8,12.9z"/>
			<path class="st37" d="M-437.8,12.9c-1,4.5-3.5,9-6,12.1c-4.7,5.9-9.3,4.3-12.9,2.9c-3.6-1.4-2.9,2.1-9.1,0.8
				c-2.1-0.4-3.8-2-5.2-4.1c0.7,0.3,1.4,0.4,2.1,0.4c1.8,0.1,3.6-0.5,5.3-1.1c1.7-0.6,3.5-1.1,5.3-0.9c1.6,0.1,3.1,0.8,4.7,1
				c2.3,0.2,4.6-0.6,6.7-1.8C-443.1,20-439.9,16.8-437.8,12.9z"/>
			<path class="st38" d="M-469.5,4.2c1-1.2,2.3-2.2,3.8-2.5s3.2,0.3,4.1,1.7c0.7,1.1,0.7,2.4,0.4,3.6c-0.3,1.2-1,2.3-1.6,3.4
				c-0.9,1.5-1.8,2.9-3.2,3.9s-3.4,1.2-4.6,0c-1.5-1.3-1.4-3.6-1.3-5.4C-471.8,7.2-470.6,5.5-469.5,4.2z"/>
			<path class="st36" d="M-455.3,1.2c-0.5,0.8-1.4,0.8-2.2,0.6c-0.9-0.2-1.6-0.6-1.6-0.6c0-7.7-3.9-12-5.7-13.6
				c-0.5-0.5-0.6-1.3-0.1-1.8c0.5-0.6,1.3-1.2,2.3-1.5c0.8-0.3,1.6-0.3,2.6-0.1C-456.4-14.8-454.2-0.4-455.3,1.2z"/>
			<path class="st39" d="M-455.3,1.2c-0.5,0.8-1.4,0.8-2.2,0.6c0.8-3,0.9-6.2,0.1-9.2c-0.3-1.3-0.8-2.5-1.4-3.7
				c-0.5-1-1.2-2-1.9-2.9c-0.5-0.6-1.3-1.2-1.8-1.8c0.8-0.3,1.6-0.3,2.6-0.1C-456.4-14.8-454.2-0.4-455.3,1.2z"/>
		</g>
		<g>
			<path class="st29" d="M-429.5,27.4c-0.3,0.2-0.6,0.4-0.9,0.6c-8.5,5.2-22.5,4.5-24.6-6.5c0,0,14.8-8.1,22.4-13.7
				c2.1-1.6,3.7-2.9,4.2-3.9c0,0,4.1,3,4.7,7C-423.1,14.7-421.9,22.2-429.5,27.4z"/>
			<path class="st37" d="M-429.5,27.4c0.1-0.7,0.2-1.4,0.2-2.1c0.3-5-0.4-10.1-2-14.8c-0.3-0.9-0.8-1.8-1.2-2.7
				c2.1-1.6,3.7-2.9,4.2-3.9c0,0,4.1,3,4.7,7C-423.1,14.7-421.9,22.2-429.5,27.4z"/>
			<path class="st40" d="M-439.8,28.1c-5.4,1-9.2,0.3-11.6-1.3c-1.9-1.3-3-3.2-3.5-5.3l8.4-5.6l8.8-5.8l5.4-3.6l4-2.6
				c0,0,2.2,2.1,3,6.2C-424.3,14.8-430.1,26.4-439.8,28.1z"/>
			<path class="st37" d="M-439.8,28.1c-5.4,1-9.2,0.3-11.6-1.3c5.2,1.6,11.2,0.2,15.1-3.6c3.2-3,4.9-7.5,4.8-12
				c0-1.1-0.1-2.2-0.3-3.3c-0.1-0.4-0.3-0.9-0.5-1.4l4-2.6c0,0,2.2,2.1,3,6.2C-424.3,14.8-430.1,26.4-439.8,28.1z"/>
			<path class="st25" d="M-438.2,13.4c-0.6,0.9-1.4,1.8-2.2,2.4c-0.8,0.6-2.4,0.9-3.1,1c-1.5,0.4-2.1,0-2.9-1l2.8-1.9l1.6-1.1
				l1.8-1.2l2.5-1.7c0.1,0.1,0.2,0.2,0.2,0.4C-437,11.4-437.6,12.5-438.2,13.4z"/>
			<g>
				<path class="st36" d="M-441,14.3c-0.2,0.2-0.5,0.5-0.8,0.6c-0.3,0.1-0.7,0.1-1,0c-0.3-0.2-0.5-0.5-0.7-0.8c0,0,0,0-0.1-0.1
					l1.6-1.1l1.8-1.2c0,0,0.1,0,0.1,0.1c0,0,0,0,0.1,0.1C-439.4,12.6-440.6,13.9-441,14.3z"/>
				<path class="st41" d="M-440,11.9c-0.2,0.5-0.8,0.9-1.2,1c-0.2,0.1-0.5,0.1-0.8,0l1.8-1.2C-440.2,11.8-440.1,11.8-440,11.9
					C-440,11.9-440,11.9-440,11.9z"/>
			</g>
		</g>
	</g>
</g>
<path class="st22" d="M-362.1,62.2h-65.2c-3.8,0-6.8,3.1-6.8,7v67.2c0,3.9,3,7,6.8,7h65.2c3.8,0,6.8-3.1,6.8-7V69.2
	C-355.3,65.3-358.4,62.2-362.1,62.2z"/>
<path class="st23" d="M-308.5,76.5h-62.6c-2.3,0-4.2,1.9-4.2,4.3v64.6c0,2.4,1.9,4.3,4.2,4.3h62.6c2.3,0,4.2-1.9,4.2-4.3V80.8
	C-304.3,78.4-306.2,76.5-308.5,76.5z"/>
<path class="st24" d="M55.6,55.2c0.1-0.1,0.2-0.2,0.3-0.4c0.1-0.1,0.2-0.2,0.2-0.3c0.1-0.1,0.2-0.2,0.3-0.4c0.1-0.1,0.1-0.2,0.2-0.3
	c0.1-0.1,0.2-0.3,0.3-0.4c0.1-0.1,0.1-0.2,0.2-0.2c0.1-0.1,0.2-0.3,0.3-0.4c0.1-0.1,0.1-0.1,0.2-0.2c0.1-0.2,0.2-0.3,0.3-0.5
	c0,0,0,0,0-0.1c0.4-0.6,0.8-1.2,1.2-1.8c0,0,0.1-0.1,0.1-0.1c0.1-0.2,0.2-0.3,0.3-0.5c0-0.1,0.1-0.1,0.1-0.2
	c0.1-0.1,0.2-0.3,0.2-0.4c0-0.1,0.1-0.2,0.1-0.2c0.1-0.1,0.2-0.3,0.2-0.4c0-0.1,0.1-0.2,0.1-0.2c0.1-0.1,0.1-0.3,0.2-0.4
	c0-0.1,0.1-0.2,0.1-0.2c0.1-0.1,0.1-0.3,0.2-0.4c0-0.1,0.1-0.2,0.1-0.3c0.1-0.1,0.1-0.3,0.2-0.4c0-0.1,0.1-0.2,0.1-0.2
	c0.1-0.1,0.1-0.3,0.2-0.4c0-0.1,0.1-0.2,0.1-0.2c0.1-0.1,0.1-0.3,0.2-0.4c0-0.1,0.1-0.2,0.1-0.2c0.1-0.1,0.1-0.3,0.2-0.4
	c0-0.1,0.1-0.1,0.1-0.2c0.1-0.1,0.1-0.3,0.1-0.4c0-0.1,0.1-0.1,0.1-0.2c0-0.1,0.1-0.3,0.1-0.4c0-0.1,0-0.1,0.1-0.2
	c0.2-0.6,0.4-1.2,0.6-1.8c0,0,0-0.1,0-0.1c0-0.1,0.1-0.2,0.1-0.3c0-0.1,0-0.1,0.1-0.2c0-0.1,0.1-0.2,0.1-0.3c0-0.1,0-0.1,0-0.2
	c0-0.1,0-0.2,0.1-0.2c0-0.1,0-0.1,0-0.2c0-0.1,0-0.1,0.1-0.2c0-0.1,0-0.1,0-0.2c0-0.1,0-0.1,0.1-0.2c0,0,0-0.1,0-0.1
	c0-0.1,0-0.1,0-0.2c0,0,0-0.1,0-0.1c0,0,0-0.1,0-0.1c0,0,0-0.1,0-0.1c0,0,0-0.1,0-0.1c0,0,0-0.1,0-0.1c0,0,0-0.1,0-0.1
	c0,0,0-0.1,0-0.1c0,0,0-0.1,0-0.1c0,0,0,0,0-0.1c0,0,0,0,0-0.1c0-0.1,0-0.1,0-0.1L58.1,33l-2.3-1.9L28.9,9l-0.1,0.7l-5.7,40.9
	L22.9,52L22,58.4c0.6,0.3,1.1,0.5,1.7,0.7c0.3,0.1,0.5,0.2,0.8,0.3c0.3,0.1,0.6,0.2,0.8,0.3c0.3,0.1,0.6,0.2,0.8,0.3
	c0.3,0.1,0.5,0.2,0.8,0.3c0.3,0.1,0.5,0.2,0.8,0.3c0.3,0.1,0.5,0.2,0.8,0.2c0.1,0,0.2,0.1,0.3,0.1c0.2,0.1,0.4,0.1,0.7,0.2
	c0.2,0,0.3,0.1,0.5,0.1c0.3,0.1,0.7,0.2,1,0.2c0.1,0,0.3,0.1,0.4,0.1c0.3,0.1,0.7,0.2,1,0.2c0.1,0,0.2,0,0.3,0.1
	c0.4,0.1,0.8,0.1,1.2,0.2c0,0,0.1,0,0.1,0c0.4,0.1,0.9,0.1,1.3,0.2c0,0,0,0,0,0c0.4,0,0.8,0.1,1.2,0.1c0.1,0,0.2,0,0.3,0
	c0.3,0,0.6,0,0.9,0c0.1,0,0.3,0,0.4,0c0.2,0,0.5,0,0.7,0c0.2,0,0.3,0,0.5,0c0.2,0,0.5,0,0.7,0c0.2,0,0.3,0,0.5,0
	c0.2,0,0.4,0,0.6-0.1c0.2,0,0.3,0,0.5-0.1c0.2,0,0.4,0,0.6-0.1c0.2,0,0.3,0,0.5-0.1c0.2,0,0.4-0.1,0.6-0.1c0.2,0,0.3-0.1,0.5-0.1
	c0.2,0,0.4-0.1,0.5-0.1c0.2,0,0.3-0.1,0.5-0.1c0.2,0,0.3-0.1,0.5-0.1c0.2,0,0.3-0.1,0.5-0.1c0.2-0.1,0.3-0.1,0.5-0.2
	c0.1-0.1,0.3-0.1,0.4-0.2c0.2-0.1,0.3-0.1,0.5-0.2c0.1-0.1,0.3-0.1,0.4-0.2c0.2-0.1,0.3-0.1,0.5-0.2c0.1-0.1,0.3-0.1,0.4-0.2
	c0.1-0.1,0.3-0.1,0.4-0.2c0.6-0.3,1.1-0.6,1.6-0.9c0.1-0.1,0.2-0.1,0.4-0.2c0.1-0.1,0.3-0.2,0.4-0.3c0.1-0.1,0.2-0.1,0.3-0.2
	c0.1-0.1,0.3-0.2,0.4-0.3c0.1-0.1,0.2-0.2,0.3-0.2c0.1-0.1,0.3-0.2,0.4-0.3c0.1-0.1,0.2-0.2,0.3-0.2c0.1-0.1,0.3-0.2,0.4-0.3
	c0.1-0.1,0.2-0.2,0.3-0.3c0.1-0.1,0.2-0.2,0.4-0.3c0.1-0.1,0.2-0.2,0.3-0.3c0.1-0.1,0.2-0.2,0.4-0.3c0.1-0.1,0.2-0.2,0.3-0.3
	c0.1-0.1,0.2-0.2,0.3-0.4C55.5,55.4,55.6,55.3,55.6,55.2z"/>
<g>
	<path class="st30" d="M60.1,38.1c0,0-5.8,31.7-35.4,22.9c-2.1-0.6-4.4-1.5-6.8-2.6l0.9-6.4l0.2-1.4l5.7-40.9L24.7,9l26.9,22.1
		l2.3,1.9L60.1,38.1z"/>
	<path class="st31" d="M60.1,38.1c0,0-5.8,31.7-35.4,22.9c4.2-4.1,7.5-9.2,9.6-14.7c1.8-4.8,2.7-10.1,1.9-15.3
		c-0.7-5-3-9.7-5.8-13.8c-1.5-2.2-4.5-4.8-5.8-7.4L24.7,9l26.9,22.1l2.3,1.9L60.1,38.1z"/>
	<path class="st40" d="M60.1,38.1c0,0-6.7,36.5-42.2,20.3l0.9-6.4l0.2-1.4c1.1,0.3,2,1,3,1.5c1.4,0.7,2.9,1.2,4.4,1.5
		c1.7,0.4,3.4,0.5,5.1,0.4c4.7-0.3,9.2-2.5,12.5-6c4.3-4.5,6.2-10.7,7.7-16.9l2.3,1.9L60.1,38.1z"/>
	<path class="st29" d="M60.1,38.1c0,0-6.7,36.5-42.2,20.3l0.1-0.6l0.8-5.8c3.8,2.4,13,6.9,22.5,0.8c10-6.4,12.2-16.3,12.7-19.8
		l1.9,1.6L60.1,38.1z"/>
	<path class="st42" d="M60.1,38.1c0,0-6.7,36.5-42.2,20.3l0.1-0.6c7.5,2.7,16.1,2.1,23.1-1.7c6.1-3.3,11-9,13.5-15.7
		c0.6-1.5,0.8-3.8,1.2-5.9L60.1,38.1z"/>
	<g>
		<path class="st36" d="M45.8,39.3c0.1,0.4,0.1,0.8,0,1.1c-0.2,0.3-0.5,0.6-0.8,0.8c-0.3,0.2-0.7,0.4-1,0.4c-0.6,0-1-0.6-1.2-1.2
			c0,0,0,0,0,0c-0.3-0.8-0.8-2.5-0.2-3.2c0,0,0.1-0.1,0.1-0.1c0.7-0.7,2.1,0.7,2.6,1.2C45.5,38.6,45.7,39,45.8,39.3z"/>
		<path class="st41" d="M43.7,38.5c0.1,0.6,0,1.2-0.5,1.6c-0.2,0.1-0.3,0.2-0.5,0.3c-0.3-0.8-0.8-2.5-0.2-3.2c0,0,0.1-0.1,0.1-0.1
			C43.2,37.4,43.6,38,43.7,38.5z"/>
	</g>
	<g>
		<path class="st36" d="M27.6,32.1c0,0.3,0,0.7-0.2,1c-0.2,0.3-0.5,0.4-0.9,0.5c-0.3,0.1-0.6,0.2-1,0.1c-0.5-0.1-0.7-0.7-0.8-1.2
			c0,0,0,0,0,0c-0.1-0.8-0.2-2.3,0.4-2.8c0,0,0.1,0,0.1,0c0.7-0.4,1.7,1,2,1.5C27.4,31.4,27.6,31.7,27.6,32.1z"/>
		<path class="st41" d="M26,31c0,0.5-0.3,1.1-0.7,1.3c-0.2,0.1-0.3,0.1-0.5,0.1c-0.1-0.8-0.2-2.3,0.4-2.8c0,0,0.1,0,0.1,0
			C25.7,29.9,25.9,30.5,26,31z"/>
	</g>
	<g>
		<path class="st36" d="M35.5,37.3c0.1,0.4,0,0.9-0.3,1.3c-0.3,0.3-0.7,0.5-1.1,0.7c-0.4,0.2-0.8,0.3-1.2,0.2
			c-0.6-0.2-1-0.9-1.1-1.6c0,0,0,0,0,0c-0.2-1-0.3-3,0.6-3.7c0,0,0.1,0,0.1-0.1c1-0.6,2.2,1.3,2.6,2C35.2,36.4,35.4,36.8,35.5,37.3z
			"/>
		<path class="st41" d="M33.3,35.9c0,0.7-0.3,1.4-0.9,1.7c-0.2,0.1-0.4,0.2-0.7,0.2c-0.2-1-0.3-3,0.6-3.7c0,0,0.1,0,0.1-0.1
			C32.9,34.5,33.3,35.3,33.3,35.9z"/>
	</g>
	<g>
		<path class="st36" d="M26.3,47.1c0,0.5-0.1,0.9-0.5,1.2c-0.3,0.3-0.8,0.4-1.2,0.5c-0.4,0.1-0.9,0.2-1.3,0
			c-0.6-0.3-0.9-1.1-0.9-1.8c0,0,0,0,0,0c0-1,0.1-3.1,1.1-3.7c0,0,0.1,0,0.1-0.1c1.1-0.4,2.1,1.6,2.4,2.4
			C26.2,46.2,26.3,46.6,26.3,47.1z"/>
		<path class="st41" d="M24.3,45.3c-0.1,0.7-0.5,1.4-1.2,1.6c-0.2,0.1-0.5,0.1-0.7,0.1c0-1,0.1-3.1,1.1-3.7c0,0,0.1,0,0.1-0.1
			C24.1,43.9,24.4,44.7,24.3,45.3z"/>
	</g>
	<g>
		<path class="st36" d="M35.5,47.4c0.1,0.4,0,0.9-0.3,1.2c-0.3,0.3-0.7,0.5-1.1,0.7c-0.4,0.2-0.8,0.3-1.2,0.2
			c-0.6-0.2-1-0.9-1.1-1.6c0,0,0,0,0,0c-0.2-1-0.3-3,0.6-3.6c0,0,0.1,0,0.1-0.1c1-0.6,2.2,1.3,2.6,2C35.3,46.6,35.5,47,35.5,47.4z"
			/>
		<path class="st41" d="M33.4,46c0,0.7-0.3,1.4-0.9,1.7c-0.2,0.1-0.4,0.2-0.7,0.2c-0.2-1-0.3-3,0.6-3.6c0,0,0.1,0,0.1-0.1
			C33,44.7,33.3,45.4,33.4,46z"/>
	</g>
	<g>
		<path class="st36" d="M31.7,21.8c0.1,0.4,0,0.8-0.3,1.1c-0.2,0.3-0.6,0.4-1,0.6c-0.3,0.1-0.7,0.3-1.1,0.2
			c-0.6-0.2-0.8-0.8-0.9-1.4c0,0,0,0,0,0c-0.1-0.9-0.3-2.6,0.5-3.2c0,0,0.1,0,0.1-0.1c0.8-0.5,1.9,1.1,2.3,1.7
			C31.5,21.1,31.6,21.4,31.7,21.8z"/>
		<path class="st41" d="M29.8,20.6c0,0.6-0.3,1.2-0.8,1.5c-0.2,0.1-0.4,0.2-0.6,0.2c-0.1-0.9-0.3-2.6,0.5-3.2c0,0,0.1,0,0.1-0.1
			C29.5,19.4,29.8,20.1,29.8,20.6z"/>
	</g>
	<g>
		<path class="st36" d="M41.3,28.6c0.2,0.4,0.2,0.8,0,1.2c-0.2,0.4-0.5,0.6-0.8,0.9c-0.3,0.2-0.7,0.5-1.1,0.5
			c-0.6,0-1.1-0.6-1.4-1.1c0,0,0,0,0,0c-0.4-0.8-1-2.6-0.4-3.4c0,0,0-0.1,0.1-0.1c0.7-0.8,2.3,0.6,2.8,1.1
			C40.9,27.9,41.2,28.3,41.3,28.6z"/>
		<path class="st41" d="M39.1,27.9c0.2,0.6,0,1.3-0.4,1.8c-0.2,0.2-0.3,0.3-0.6,0.3c-0.4-0.8-1-2.6-0.4-3.4c0,0,0-0.1,0.1-0.1
			C38.4,26.8,38.9,27.4,39.1,27.9z"/>
	</g>
	<path class="st32" d="M24.1,25.6c0.4-1.7,1.3-3.7,3-4c1.5-0.3,2.9,0.9,3.8,2.1c1.6,2.3,2.2,5.3,1.7,8.1c-0.6,3.3-4.3,7.5-7.7,5.1
		C21.9,34.9,23.4,28.5,24.1,25.6z"/>
</g>
<g>
	<path class="st22" d="M-520.5,63.1h-65.2c-3.8,0-6.8,3.1-6.8,7v67.2c0,3.9,3,7,6.8,7h65.2c3.8,0,6.8-3.1,6.8-7V70.1
		C-513.7,66.2-516.8,63.1-520.5,63.1z"/>
	<path class="st23" d="M-521.8,67.1h-62.6c-2.3,0-4.2,1.9-4.2,4.3V136c0,2.4,1.9,4.3,4.2,4.3h62.6c2.3,0,4.2-1.9,4.2-4.3V71.4
		C-517.6,69.1-519.5,67.1-521.8,67.1z"/>
	<path class="st24" d="M-534.8,121.9c0.1-0.1,0.2-0.2,0.3-0.4c0.1-0.1,0.2-0.2,0.2-0.3c0.1-0.1,0.2-0.2,0.3-0.4
		c0.1-0.1,0.1-0.2,0.2-0.3c0.1-0.1,0.2-0.3,0.3-0.4c0.1-0.1,0.1-0.2,0.2-0.2c0.1-0.1,0.2-0.3,0.3-0.4c0.1-0.1,0.1-0.1,0.2-0.2
		c0.1-0.2,0.2-0.3,0.3-0.5c0,0,0,0,0-0.1c0.4-0.6,0.8-1.2,1.2-1.8c0,0,0.1-0.1,0.1-0.1c0.1-0.2,0.2-0.3,0.3-0.5
		c0-0.1,0.1-0.1,0.1-0.2c0.1-0.1,0.2-0.3,0.2-0.4c0-0.1,0.1-0.2,0.1-0.2c0.1-0.1,0.2-0.3,0.2-0.4c0-0.1,0.1-0.2,0.1-0.2
		c0.1-0.1,0.1-0.3,0.2-0.4c0-0.1,0.1-0.2,0.1-0.2c0.1-0.1,0.1-0.3,0.2-0.4c0-0.1,0.1-0.2,0.1-0.3c0.1-0.1,0.1-0.3,0.2-0.4
		c0-0.1,0.1-0.2,0.1-0.2c0.1-0.1,0.1-0.3,0.2-0.4c0-0.1,0.1-0.2,0.1-0.2c0.1-0.1,0.1-0.3,0.2-0.4c0-0.1,0.1-0.2,0.1-0.2
		c0.1-0.1,0.1-0.3,0.2-0.4c0-0.1,0.1-0.1,0.1-0.2c0.1-0.1,0.1-0.3,0.1-0.4c0-0.1,0.1-0.1,0.1-0.2c0-0.1,0.1-0.3,0.1-0.4
		c0-0.1,0-0.1,0.1-0.2c0.2-0.6,0.4-1.2,0.6-1.8c0,0,0-0.1,0-0.1c0-0.1,0.1-0.2,0.1-0.3c0-0.1,0-0.1,0.1-0.2c0-0.1,0.1-0.2,0.1-0.3
		c0-0.1,0-0.1,0-0.2c0-0.1,0-0.2,0.1-0.2c0-0.1,0-0.1,0-0.2c0-0.1,0-0.1,0.1-0.2c0-0.1,0-0.1,0-0.2c0-0.1,0-0.1,0.1-0.2
		c0,0,0-0.1,0-0.1c0-0.1,0-0.1,0-0.2c0,0,0-0.1,0-0.1c0,0,0-0.1,0-0.1c0,0,0-0.1,0-0.1c0,0,0-0.1,0-0.1c0,0,0-0.1,0-0.1
		c0,0,0-0.1,0-0.1c0,0,0-0.1,0-0.1c0,0,0-0.1,0-0.1c0,0,0,0,0-0.1c0,0,0,0,0-0.1c0-0.1,0-0.1,0-0.1l-6.1-5.1l-2.3-1.9l-26.9-22.1
		l-0.1,0.7l-5.7,40.9l-0.2,1.4l-0.9,6.4c0.6,0.3,1.1,0.5,1.7,0.7c0.3,0.1,0.5,0.2,0.8,0.3c0.3,0.1,0.6,0.2,0.8,0.3
		c0.3,0.1,0.6,0.2,0.8,0.3c0.3,0.1,0.5,0.2,0.8,0.3c0.3,0.1,0.5,0.2,0.8,0.3c0.3,0.1,0.5,0.2,0.8,0.2c0.1,0,0.2,0.1,0.3,0.1
		c0.2,0.1,0.4,0.1,0.7,0.2c0.2,0,0.3,0.1,0.5,0.1c0.3,0.1,0.7,0.2,1,0.2c0.1,0,0.3,0.1,0.4,0.1c0.3,0.1,0.7,0.2,1,0.2
		c0.1,0,0.2,0,0.3,0.1c0.4,0.1,0.8,0.1,1.2,0.2c0,0,0.1,0,0.1,0c0.4,0.1,0.9,0.1,1.3,0.2c0,0,0,0,0,0c0.4,0,0.8,0.1,1.2,0.1
		c0.1,0,0.2,0,0.3,0c0.3,0,0.6,0,0.9,0c0.1,0,0.3,0,0.4,0c0.2,0,0.5,0,0.7,0c0.2,0,0.3,0,0.5,0c0.2,0,0.5,0,0.7,0c0.2,0,0.3,0,0.5,0
		c0.2,0,0.4,0,0.6-0.1c0.2,0,0.3,0,0.5-0.1c0.2,0,0.4,0,0.6-0.1c0.2,0,0.3,0,0.5-0.1c0.2,0,0.4-0.1,0.6-0.1c0.2,0,0.3-0.1,0.5-0.1
		c0.2,0,0.4-0.1,0.5-0.1c0.2,0,0.3-0.1,0.5-0.1c0.2,0,0.3-0.1,0.5-0.1c0.2,0,0.3-0.1,0.5-0.1c0.2-0.1,0.3-0.1,0.5-0.2
		c0.1-0.1,0.3-0.1,0.4-0.2c0.2-0.1,0.3-0.1,0.5-0.2c0.1-0.1,0.3-0.1,0.4-0.2c0.2-0.1,0.3-0.1,0.5-0.2c0.1-0.1,0.3-0.1,0.4-0.2
		c0.1-0.1,0.3-0.1,0.4-0.2c0.6-0.3,1.1-0.6,1.6-0.9c0.1-0.1,0.2-0.1,0.4-0.2c0.1-0.1,0.3-0.2,0.4-0.3c0.1-0.1,0.2-0.1,0.3-0.2
		c0.1-0.1,0.3-0.2,0.4-0.3c0.1-0.1,0.2-0.2,0.3-0.2c0.1-0.1,0.3-0.2,0.4-0.3c0.1-0.1,0.2-0.2,0.3-0.2c0.1-0.1,0.3-0.2,0.4-0.3
		c0.1-0.1,0.2-0.2,0.3-0.3c0.1-0.1,0.2-0.2,0.4-0.3c0.1-0.1,0.2-0.2,0.3-0.3c0.1-0.1,0.2-0.2,0.4-0.3c0.1-0.1,0.2-0.2,0.3-0.3
		c0.1-0.1,0.2-0.2,0.3-0.4C-535,122.1-534.9,122-534.8,121.9z"/>
	<g>
		<path class="st30" d="M-530.4,104.8c0,0-5.8,31.7-35.4,22.9c-2.1-0.6-4.4-1.5-6.8-2.6l0.9-6.4l0.2-1.4l5.7-40.9l0.1-0.7l26.9,22.1
			l2.3,1.9L-530.4,104.8z"/>
		<path class="st31" d="M-530.4,104.8c0,0-5.8,31.7-35.4,22.9c4.2-4.1,7.5-9.2,9.6-14.7c1.8-4.8,2.7-10.1,1.9-15.3
			c-0.7-5-3-9.7-5.8-13.8c-1.5-2.2-4.5-4.8-5.8-7.4l0.1-0.7l26.9,22.1l2.3,1.9L-530.4,104.8z"/>
		<path class="st40" d="M-530.4,104.8c0,0-6.7,36.5-42.2,20.3l0.9-6.4l0.2-1.4c1.1,0.3,2,1,3,1.5c1.4,0.7,2.9,1.2,4.4,1.5
			c1.7,0.4,3.4,0.5,5.1,0.4c4.7-0.3,9.2-2.5,12.5-6c4.3-4.5,6.2-10.7,7.7-16.9l2.3,1.9L-530.4,104.8z"/>
		<path class="st29" d="M-530.4,104.8c0,0-6.7,36.5-42.2,20.3l0.1-0.6l0.8-5.8c3.8,2.4,13,6.9,22.5,0.8c10-6.4,12.2-16.3,12.7-19.8
			l1.9,1.6L-530.4,104.8z"/>
		<path class="st42" d="M-530.4,104.8c0,0-6.7,36.5-42.2,20.3l0.1-0.6c7.5,2.7,16.1,2.1,23.1-1.7c6.1-3.3,11-9,13.5-15.7
			c0.6-1.5,0.8-3.8,1.2-5.9L-530.4,104.8z"/>
		<g>
			<path class="st36" d="M-544.7,106c0.1,0.4,0.1,0.8,0,1.1c-0.2,0.3-0.5,0.6-0.8,0.8c-0.3,0.2-0.7,0.4-1,0.4c-0.6,0-1-0.6-1.2-1.2
				c0,0,0,0,0,0c-0.3-0.8-0.8-2.5-0.2-3.2c0,0,0.1-0.1,0.1-0.1c0.7-0.7,2.1,0.7,2.6,1.2C-545,105.4-544.8,105.7-544.7,106z"/>
			<path class="st41" d="M-546.8,105.2c0.1,0.6,0,1.2-0.5,1.6c-0.2,0.1-0.3,0.2-0.5,0.3c-0.3-0.8-0.8-2.5-0.2-3.2
				c0,0,0.1-0.1,0.1-0.1C-547.3,104.1-546.9,104.7-546.8,105.2z"/>
		</g>
		<g>
			<path class="st36" d="M-562.9,98.8c0,0.3,0,0.7-0.2,1c-0.2,0.3-0.5,0.4-0.9,0.5c-0.3,0.1-0.6,0.2-1,0.1c-0.5-0.1-0.7-0.7-0.8-1.2
				c0,0,0,0,0,0c-0.1-0.8-0.2-2.3,0.4-2.8c0,0,0.1,0,0.1,0c0.7-0.4,1.7,1,2,1.5C-563.1,98.1-562.9,98.5-562.9,98.8z"/>
			<path class="st41" d="M-564.5,97.7c0,0.5-0.3,1.1-0.7,1.3c-0.2,0.1-0.3,0.1-0.5,0.1c-0.1-0.8-0.2-2.3,0.4-2.8c0,0,0.1,0,0.1,0
				C-564.8,96.7-564.5,97.3-564.5,97.7z"/>
		</g>
		<g>
			<path class="st36" d="M-555,104c0.1,0.4,0,0.9-0.3,1.3c-0.3,0.3-0.7,0.5-1.1,0.7c-0.4,0.2-0.8,0.3-1.2,0.2
				c-0.6-0.2-1-0.9-1.1-1.6c0,0,0,0,0,0c-0.2-1-0.3-3,0.6-3.7c0,0,0.1,0,0.1-0.1c1-0.6,2.2,1.3,2.6,2
				C-555.2,103.1-555,103.5-555,104z"/>
			<path class="st41" d="M-557.2,102.6c0,0.7-0.3,1.4-0.9,1.7c-0.2,0.1-0.4,0.2-0.7,0.2c-0.2-1-0.3-3,0.6-3.7c0,0,0.1,0,0.1-0.1
				C-557.5,101.2-557.2,102-557.2,102.6z"/>
		</g>
		<g>
			<path class="st36" d="M-564.2,113.8c0,0.5-0.1,0.9-0.5,1.2c-0.3,0.3-0.8,0.4-1.2,0.5c-0.4,0.1-0.9,0.2-1.3,0
				c-0.6-0.3-0.9-1.1-0.9-1.8c0,0,0,0,0,0c0-1,0.1-3.1,1.1-3.7c0,0,0.1,0,0.1-0.1c1.1-0.4,2.1,1.6,2.4,2.4
				C-564.3,112.9-564.1,113.4-564.2,113.8z"/>
			<path class="st41" d="M-566.2,112.1c-0.1,0.7-0.5,1.4-1.2,1.6c-0.2,0.1-0.5,0.1-0.7,0.1c0-1,0.1-3.1,1.1-3.7c0,0,0.1,0,0.1-0.1
				C-566.4,110.6-566.1,111.4-566.2,112.1z"/>
		</g>
		<g>
			<path class="st36" d="M-555,114.1c0.1,0.4,0,0.9-0.3,1.2c-0.3,0.3-0.7,0.5-1.1,0.7c-0.4,0.2-0.8,0.3-1.2,0.2
				c-0.6-0.2-1-0.9-1.1-1.6c0,0,0,0,0,0c-0.2-1-0.3-3,0.6-3.6c0,0,0.1,0,0.1-0.1c1-0.6,2.2,1.3,2.6,2
				C-555.2,113.3-555,113.7-555,114.1z"/>
			<path class="st41" d="M-557.1,112.7c0,0.7-0.3,1.4-0.9,1.7c-0.2,0.1-0.4,0.2-0.7,0.2c-0.2-1-0.3-3,0.6-3.6c0,0,0.1,0,0.1-0.1
				C-557.5,111.4-557.1,112.1-557.1,112.7z"/>
		</g>
		<g>
			<path class="st36" d="M-558.8,88.5c0.1,0.4,0,0.8-0.3,1.1c-0.2,0.3-0.6,0.4-1,0.6c-0.3,0.1-0.7,0.3-1.1,0.2
				c-0.6-0.2-0.8-0.8-0.9-1.4c0,0,0,0,0,0c-0.1-0.9-0.3-2.6,0.5-3.2c0,0,0.1,0,0.1-0.1c0.8-0.5,1.9,1.1,2.3,1.7
				C-559,87.8-558.9,88.1-558.8,88.5z"/>
			<path class="st41" d="M-560.7,87.3c0,0.6-0.3,1.2-0.8,1.5c-0.2,0.1-0.4,0.2-0.6,0.2c-0.1-0.9-0.3-2.6,0.5-3.2c0,0,0.1,0,0.1-0.1
				C-561,86.1-560.7,86.8-560.7,87.3z"/>
		</g>
		<g>
			<path class="st36" d="M-549.1,95.3c0.2,0.4,0.2,0.8,0,1.2c-0.2,0.4-0.5,0.6-0.8,0.9c-0.3,0.2-0.7,0.5-1.1,0.5
				c-0.6,0-1.1-0.6-1.4-1.1c0,0,0,0,0,0c-0.4-0.8-1-2.6-0.4-3.4c0,0,0-0.1,0.1-0.1c0.7-0.8,2.3,0.6,2.8,1.1
				C-549.6,94.6-549.3,95-549.1,95.3z"/>
			<path class="st41" d="M-551.4,94.6c0.2,0.6,0,1.3-0.4,1.8c-0.2,0.2-0.3,0.3-0.6,0.3c-0.4-0.8-1-2.6-0.4-3.4c0,0,0-0.1,0.1-0.1
				C-552.1,93.5-551.6,94.1-551.4,94.6z"/>
		</g>
		<path class="st32" d="M-566.4,92.3c0.4-1.7,1.3-3.7,3-4c1.5-0.3,2.9,0.9,3.8,2.1c1.6,2.3,2.2,5.3,1.7,8.1
			c-0.6,3.3-4.3,7.5-7.7,5.1C-568.5,101.6-567.1,95.2-566.4,92.3z"/>
	</g>
</g>
<g>
	<g>
		<g>
			<path class="st22" d="M-631.1,104.9c0.3-0.3,0.1-0.8-0.3-0.8l-2.5-0.4c-0.2,0-0.3-0.1-0.4-0.3l-1.1-2.3c-0.2-0.4-0.7-0.4-0.9,0
				l-1.1,2.3c-0.1,0.1-0.2,0.2-0.4,0.3l-2.5,0.4c-0.4,0.1-0.5,0.6-0.3,0.8l1.8,1.8c0.1,0.1,0.2,0.3,0.1,0.4l-0.4,2.5
				c-0.1,0.4,0.3,0.7,0.7,0.5l2.2-1.2c0.1-0.1,0.3-0.1,0.4,0l2.2,1.2c0.3,0.2,0.8-0.1,0.7-0.5l-0.4-2.5c0-0.2,0-0.3,0.1-0.4
				L-631.1,104.9z"/>
		</g>
		<g>
			<path class="st22" d="M-613.1-85.9c0.3-0.3,0.1-0.8-0.3-0.8l-2.5-0.4c-0.2,0-0.3-0.1-0.4-0.3l-1.1-2.3c-0.2-0.4-0.7-0.4-0.9,0
				l-1.1,2.3c-0.1,0.1-0.2,0.2-0.4,0.3l-2.5,0.4c-0.4,0.1-0.5,0.6-0.3,0.8l1.8,1.8c0.1,0.1,0.2,0.3,0.1,0.4l-0.4,2.5
				c-0.1,0.4,0.3,0.7,0.7,0.5l2.2-1.2c0.1-0.1,0.3-0.1,0.4,0l2.2,1.2c0.3,0.2,0.8-0.1,0.7-0.5l-0.4-2.5c0-0.2,0-0.3,0.1-0.4
				L-613.1-85.9z"/>
		</g>
		<g>
			<path class="st22" d="M-176.6,151.1c0.3-0.3,0.1-0.8-0.3-0.8l-2.5-0.4c-0.2,0-0.3-0.1-0.4-0.3l-1.1-2.3c-0.2-0.4-0.7-0.4-0.9,0
				l-1.1,2.3c-0.1,0.1-0.2,0.2-0.4,0.3l-2.5,0.4c-0.4,0.1-0.5,0.6-0.3,0.8l1.8,1.8c0.1,0.1,0.2,0.3,0.1,0.4l-0.4,2.5
				c-0.1,0.4,0.3,0.7,0.7,0.5l2.2-1.2c0.1-0.1,0.3-0.1,0.4,0l2.2,1.2c0.3,0.2,0.8-0.1,0.7-0.5l-0.4-2.5c0-0.2,0-0.3,0.1-0.4
				L-176.6,151.1z"/>
		</g>
		<g>
			<path class="st22" d="M-150.6-26.8c0.3-0.3,0.1-0.8-0.3-0.8l-2.5-0.4c-0.2,0-0.3-0.1-0.4-0.3l-1.1-2.3c-0.2-0.4-0.7-0.4-0.9,0
				l-1.1,2.3c-0.1,0.1-0.2,0.2-0.4,0.3l-2.5,0.4c-0.4,0.1-0.5,0.6-0.3,0.8l1.8,1.8c0.1,0.1,0.2,0.3,0.1,0.4l-0.4,2.5
				c-0.1,0.4,0.3,0.7,0.7,0.5l2.2-1.2c0.1-0.1,0.3-0.1,0.4,0l2.2,1.2c0.3,0.2,0.8-0.1,0.7-0.5l-0.4-2.5c0-0.2,0-0.3,0.1-0.4
				L-150.6-26.8z"/>
		</g>
		<g>
			<path class="st22" d="M-611.9,136.5c0.3-0.8-0.5-1.6-1.2-1.3l-4.9,1.6c-0.3,0.1-0.6,0-0.9-0.2l-4.1-3.2c-0.6-0.5-1.6,0-1.6,0.8
				l0,5.3c0,0.3-0.2,0.6-0.4,0.8l-4.2,3c-0.7,0.5-0.5,1.5,0.3,1.8l4.9,1.6c0.3,0.1,0.5,0.4,0.6,0.7l1.5,5.1c0.2,0.8,1.3,1,1.7,0.3
				l3-4.3c0.2-0.3,0.5-0.4,0.8-0.4l5.1,0.1c0.8,0,1.3-0.9,0.8-1.6l-3-4.3c-0.2-0.3-0.2-0.6-0.1-0.9L-611.9,136.5z"/>
		</g>
		<g>
			<path class="st22" d="M-622.9-52.2c0.3-0.8-0.5-1.6-1.2-1.3l-4.9,1.6c-0.3,0.1-0.6,0-0.9-0.2l-4.1-3.2c-0.6-0.5-1.6,0-1.6,0.8
				l0,5.3c0,0.3-0.2,0.6-0.4,0.8l-4.2,3c-0.7,0.5-0.5,1.5,0.3,1.8l4.9,1.6c0.3,0.1,0.5,0.4,0.6,0.7l1.5,5.1c0.2,0.8,1.3,1,1.7,0.3
				l3-4.3c0.2-0.3,0.5-0.4,0.8-0.4l5.1,0.1c0.8,0,1.3-0.9,0.8-1.6l-3-4.3c-0.2-0.3-0.2-0.6-0.1-0.9L-622.9-52.2z"/>
		</g>
		<g>
			<path class="st22" d="M-147.2,110.3c0.3-0.8-0.5-1.6-1.2-1.3l-4.9,1.6c-0.3,0.1-0.6,0-0.9-0.2l-4.1-3.2c-0.6-0.5-1.6,0-1.6,0.8
				l0,5.3c0,0.3-0.2,0.6-0.4,0.8l-4.2,3c-0.7,0.5-0.5,1.5,0.3,1.8l4.9,1.6c0.3,0.1,0.5,0.4,0.6,0.7l1.5,5.1c0.2,0.8,1.3,1,1.7,0.3
				l3-4.3c0.2-0.3,0.5-0.4,0.8-0.4l5.1,0.1c0.8,0,1.3-0.9,0.8-1.6l-3-4.3c-0.2-0.3-0.2-0.6-0.1-0.9L-147.2,110.3z"/>
		</g>
		<g>
			<path class="st22" d="M-158.7-85.6c0.3-0.8-0.5-1.6-1.2-1.3l-4.9,1.6c-0.3,0.1-0.6,0-0.9-0.2l-4.1-3.2c-0.6-0.5-1.6,0-1.6,0.8
				l0,5.3c0,0.3-0.2,0.6-0.4,0.8l-4.2,3c-0.7,0.5-0.5,1.5,0.3,1.8l4.9,1.6c0.3,0.1,0.5,0.4,0.6,0.7l1.5,5.1c0.2,0.8,1.3,1,1.7,0.3
				l3-4.3c0.2-0.3,0.5-0.4,0.8-0.4l5.1,0.1c0.8,0,1.3-0.9,0.8-1.6l-3-4.3c-0.2-0.3-0.2-0.6-0.1-0.9L-158.7-85.6z"/>
		</g>
		<g>
			<path class="st22" d="M-506.7-161.4c0,2.5-2,4.6-4.5,4.6c-2.5,0-4.5-2.1-4.5-4.6c0-2.5,2-4.6,4.5-4.6
				C-508.7-166-506.7-163.9-506.7-161.4z"/>
		</g>
		<g>
			<path class="st22" d="M-273.5-161.4c0,2.2-1.8,4.1-3.9,4.1s-3.9-1.8-3.9-4.1c0-2.2,1.8-4.1,3.9-4.1S-273.5-163.6-273.5-161.4z"/>
		</g>
	</g>
</g>
</svg>
